<?xml version="1.0" encoding="UTF-8"?>
<!DOCTYPE svg PUBLIC "-//W3C//DTD SVG 1.1//EN" "http://www.w3.org/Graphics/SVG/1.1/DTD/svg11.dtd">
<!-- Creator: CorelDRAW X7 -->
<svg xmlns="http://www.w3.org/2000/svg" xml:space="preserve" version="1.1" style="shape-rendering:geometricPrecision; text-rendering:geometricPrecision; image-rendering:optimizeQuality; fill-rule:evenodd; clip-rule:evenodd"
viewBox="0 0 564 564"
 xmlns:xlink="http://www.w3.org/1999/xlink">
 <defs>
  <style type="text/css">
   <![CDATA[
    .fil0 {fill:black;fill-rule:nonzero}
   ]]>
  </style>
 </defs>
 <g id="__x0023_Layer_x0020_1">
  <path class="fil0" d="M508 0l-452 0c-31,0 -56,25 -56,56l0 452c0,31 25,56 56,56l452 0c31,0 56,-25 56,-56l0 -452c0,-31 -25,-56 -56,-56zm-226 169l0 0c63,0 113,51 113,113 0,63 -50,113 -113,113 -62,0 -113,-50 -113,-113 0,-62 51,-113 113,-113zm-211 339l0 0c-8,0 -14,-5 -15,-13 0,0 0,-1 0,-1l0 -240 60 0c-3,9 -4,19 -3,28 0,94 76,169 170,169 93,0 168,-76 169,-169 0,-9 -1,-19 -3,-28l59 0 0 240c0,7 -5,14 -13,14 0,0 -1,0 -1,0l-423 0zm437 -381l0 0c0,7 -5,14 -13,14 0,0 -1,0 -1,0l-57 0c-7,1 -13,-5 -14,-12 0,-1 0,-1 0,-2l0 -56c0,-8 5,-14 13,-15 0,0 1,0 1,0l57 0c7,0 14,6 14,13 0,0 0,1 0,2l0 56z"/>
 </g>
</svg>
