<?xml version="1.0" encoding="UTF-8"?>
<!DOCTYPE svg PUBLIC "-//W3C//DTD SVG 1.1//EN" "http://www.w3.org/Graphics/SVG/1.1/DTD/svg11.dtd">
<!-- Creator: CorelDRAW X7 -->
<svg xmlns="http://www.w3.org/2000/svg" xml:space="preserve" version="1.1" style="shape-rendering:geometricPrecision; text-rendering:geometricPrecision; image-rendering:optimizeQuality; fill-rule:evenodd; clip-rule:evenodd"
viewBox="0 0 792 448"
 xmlns:xlink="http://www.w3.org/1999/xlink">
 <defs>
  <style type="text/css">
   <![CDATA[
    .fil0 {fill:black;fill-rule:nonzero}
   ]]>
  </style>
 </defs>
 <g id="__x0023_Layer_x0020_1">
  <path class="fil0" d="M788 405c-1,-2 -2,-4 -3,-5 -22,-34 -48,-65 -79,-91l-1 0 0 -1 0 0 -1 0c-17,-17 -28,-28 -33,-34 -8,-9 -11,-21 -6,-33 11,-19 23,-37 37,-53 11,-14 20,-26 27,-35 48,-62 68,-102 62,-120l-3 -4c-3,-3 -7,-6 -12,-6 -9,-3 -18,-3 -27,-1l-119 0c-2,-1 -5,0 -8,1l-5 1 -2 1 -2 1c-2,1 -3,3 -4,4 -2,2 -4,5 -5,7 -12,32 -27,63 -44,92 -10,17 -19,32 -28,44 -6,10 -13,19 -21,27 -5,5 -10,10 -16,14 -3,3 -6,5 -10,5 -3,-1 -5,-1 -7,-2 -4,-2 -8,-6 -10,-10 -2,-5 -4,-10 -4,-16 -1,-6 -2,-11 -2,-16 0,-5 0,-11 0,-20 0,-8 1,-14 1,-17 0,-10 0,-22 0,-34 1,-12 1,-21 1,-28 1,-7 1,-15 1,-23 0,-6 -1,-12 -2,-18 -1,-5 -2,-9 -4,-14 -2,-4 -5,-7 -8,-9 -5,-3 -9,-5 -14,-6 -19,-3 -37,-5 -56,-5 -33,-3 -67,1 -99,10 -5,3 -11,7 -15,12 -5,6 -6,9 -2,10 13,1 26,7 35,17l2 5c3,6 5,13 6,19 2,10 3,20 4,30 1,17 1,34 0,51 -2,14 -3,25 -4,33 -1,7 -3,13 -6,19 -1,3 -3,6 -5,9 0,1 -1,1 -2,2 -3,1 -7,2 -11,2 -5,0 -10,-2 -14,-6 -6,-4 -12,-10 -17,-15 -7,-9 -14,-18 -20,-28 -7,-12 -15,-26 -23,-43l-7 -12c-4,-7 -10,-18 -17,-33 -7,-14 -13,-28 -19,-42 -2,-5 -5,-10 -10,-13l-2 -1c-2,-2 -4,-3 -6,-4 -3,-1 -6,-2 -10,-3l-113 1c-8,-1 -17,2 -23,8l-2 3c-1,2 -1,4 -1,6 0,4 1,8 3,11 16,38 34,75 53,111 20,36 37,64 51,86 14,22 29,42 44,62 14,19 24,31 29,37 5,6 9,9 11,12l11 10c9,8 18,16 29,23 13,9 27,18 42,27 17,10 35,17 54,22 20,5 40,7 61,6l47 0c8,0 16,-3 22,-8l2 -2c1,-3 2,-5 3,-8 1,-4 1,-7 1,-11 0,-11 1,-21 3,-32 1,-7 4,-14 7,-21 2,-4 5,-9 9,-12 2,-2 4,-4 7,-6 1,-1 2,-1 3,-1 8,-2 17,0 23,6 10,7 18,15 25,24 8,9 18,20 29,31 8,10 18,19 29,26l8 5c7,4 14,7 21,9 8,3 16,4 23,2l106 -2c8,1 17,-1 24,-4 5,-3 9,-7 11,-12 1,-4 1,-9 0,-14 -1,-3 -2,-7 -3,-10z"/>
 </g>
</svg>
