<svg xmlns="http://www.w3.org/2000/svg" width="55" height="36" viewBox="0 0 55 36">
  <defs>
    <style>
      .cls-1 {
        fill: #fff;
        fill-rule: evenodd;
      }
    </style>
  </defs>
  <path id="_1_000" data-name="1 000" class="cls-1" d="M678.071,1145.04l-13.909-4.81a5.382,5.382,0,0,0-4.055.25l-0.7.34a3.946,3.946,0,0,1-3.052.17l-1.194-.43a1.588,1.588,0,0,0-.169-0.1l-7.118-2.43a0.714,0.714,0,0,0-.518.04,0.659,0.659,0,0,0-.338.38l-5.981,17.52a0.682,0.682,0,0,0,.417.86l7.129,2.45a0.6,0.6,0,0,0,.226.04,0.723,0.723,0,0,0,.292-0.06,0.678,0.678,0,0,0,.338-0.39l5.755-16.84,0.721,0.26a5.356,5.356,0,0,0,4.1-.24l0.7-.34a3.957,3.957,0,0,1,3.019-.19l13.391,4.63a3.2,3.2,0,0,1-1.115,2.07,3.065,3.065,0,0,1-2.793.06l-5.846-2a0.678,0.678,0,0,0-.54.04,0.717,0.717,0,0,0-.338.43,8.212,8.212,0,0,1-3.582,4.69c-1.711.93-3.829,0.96-6.295,0.12a0.665,0.665,0,0,0-.856.41,0.673,0.673,0,0,0,.416.86,11.34,11.34,0,0,0,3.728.68,7.506,7.506,0,0,0,3.649-.89,9.23,9.23,0,0,0,4.01-4.85l5.192,1.79a4.339,4.339,0,0,0,4.01-.23,4.985,4.985,0,0,0,1.757-3.63A0.682,0.682,0,0,0,678.071,1145.04Zm-29.677,12.73-5.857-2.01,5.541-16.22,5.7,1.95a0.836,0.836,0,0,0,.136.07l0.022,0.01Zm29.778,9.57a32.832,32.832,0,0,0,7.828-5.37l2.939-2.71,6.679-3.28a0.689,0.689,0,0,0,.316-0.91l-8.132-16.58a0.642,0.642,0,0,0-.383-0.34,0.665,0.665,0,0,0-.518.03l-6.769,3.33a0.676,0.676,0,0,0-.315.9l7.884,16.17-2.647,2.43a31.477,31.477,0,0,1-7.512,5.14l-12.964,6.37a1.477,1.477,0,0,1-1.148.07,1.556,1.556,0,0,1-.868-0.77,1.485,1.485,0,0,1-.067-1.16,1.541,1.541,0,0,1,.766-0.87l7.241-3.56a0.677,0.677,0,0,0-.585-1.22l-7.084,3.48-3.571,1.76a1.518,1.518,0,0,1-2.016-.69,1.534,1.534,0,0,1,.687-2.03l10.407-5.11a0.677,0.677,0,0,0-.586-1.22l-7.7,3.79-2.7,1.32-1.273.62a1.509,1.509,0,0,1-1.329-2.71l1.284-.63,9.314-4.58a0.689,0.689,0,0,0,.316-0.91,0.676,0.676,0,0,0-.9-0.31l-5.981,2.94-3.334,1.64a1.436,1.436,0,0,1-1.149.06,1.488,1.488,0,0,1-.867-0.77,1.458,1.458,0,0,1-.067-1.15,1.541,1.541,0,0,1,.766-0.87l4.944-2.43a0.677,0.677,0,0,0-.586-1.22l-4.944,2.43a2.884,2.884,0,0,0-1.453,1.65,2.845,2.845,0,0,0,.135,2.19,2.781,2.781,0,0,0,1.205,1.26,2.868,2.868,0,0,0,2,4.91c0.124,0,.248-0.02.372-0.03a2.911,2.911,0,0,0,.247,1.73,2.851,2.851,0,0,0,2.568,1.61,2.705,2.705,0,0,0,1.251-.3l1.227-.61a2.744,2.744,0,0,0,.282,1.55,2.872,2.872,0,0,0,1.644,1.46,3.006,3.006,0,0,0,.935.16,2.759,2.759,0,0,0,1.25-.3l12.963-6.36m10.666-9.51-7.512-15.41,5.564-2.72,7.5,15.41Z" transform="translate(-641 -1138)"/>
</svg>
