<svg id="_1" data-name="1" xmlns="http://www.w3.org/2000/svg" xmlns:xlink="http://www.w3.org/1999/xlink" width="231" height="214" viewBox="0 0 231 214">
  <defs>
    <style>
      .cls-1 {
        fill: #fff;
        filter: url(#filter);
      }

      .cls-2 {
        font-size: 16px;
        font-family: "PT Sans";
      }

      .cls-3 {
        font-size: 38px;
        font-family: BigNoodleTitlingCyr;
      }

      .cls-3, .cls-4 {
        fill: #ff301c;
      }

      .cls-4 {
        fill-rule: evenodd;
      }
    </style>
    <filter id="filter" x="0" y="0" width="231" height="214" filterUnits="userSpaceOnUse">
      <feOffset result="offset" in="SourceAlpha"/>
      <feGaussianBlur result="blur" stdDeviation="3.162"/>
      <feFlood result="flood" flood-opacity="0.21"/>
      <feComposite result="composite" operator="in" in2="blur"/>
      <feBlend result="blend" in="SourceGraphic"/>
    </filter>
  </defs>
  <rect id="Rounded_Rectangle_7" data-name="Rounded Rectangle 7" class="cls-1" x="9" y="9" width="212" height="195" rx="10" ry="10"/>
  <text id="Процентов_приходят_по_рекомендации" data-name="Процентов приходят по  рекомендации" class="cls-2" x="30.999" y="157">Процентов приходят по <tspan x="30.999" dy="19.2">рекомендации</tspan></text>
  <text id="_75_" data-name="75%" class="cls-3" x="30.999" y="126.999">75%</text>
  <path id="_75_2" data-name="75%" class="cls-4" d="M459.575,1154.5l1.372-3.63a0.8,0.8,0,0,0-.124-0.78l-2.426-3.03,0.182-3.88a0.785,0.785,0,0,0-.359-0.7l-3.243-2.13-1.024-3.75a0.781,0.781,0,0,0-.559-0.55l-3.743-1.03-2.131-3.24a0.8,0.8,0,0,0-.7-0.36l-3.876.18-3.028-2.42a0.792,0.792,0,0,0-.782-0.13l-3.629,1.37-3.63-1.37a0.793,0.793,0,0,0-.782.13l-3.028,2.42-3.876-.18a0.8,0.8,0,0,0-.705.36l-2.13,3.24-3.743,1.03a0.78,0.78,0,0,0-.56.56l-1.023,3.74-3.244,2.13a0.787,0.787,0,0,0-.359.7l0.183,3.88-2.426,3.03a0.8,0.8,0,0,0-.124.78l1.372,3.63-1.372,3.63a0.8,0.8,0,0,0,.124.78l2.426,3.03-0.183,3.88a0.787,0.787,0,0,0,.359.7l3.244,2.13,1.023,3.75a0.784,0.784,0,0,0,.56.55l3.743,1.03,2.13,3.24a0.8,0.8,0,0,0,.705.36l3.876-.18,3.028,2.42a0.793,0.793,0,0,0,.782.13l3.63-1.37,3.63,1.37a0.91,0.91,0,0,0,.282.05,0.775,0.775,0,0,0,.5-0.18l3.028-2.42,3.876,0.18a0.8,0.8,0,0,0,.7-0.36l2.131-3.24,3.743-1.03a0.781,0.781,0,0,0,.559-0.55l1.024-3.75,3.243-2.13a0.785,0.785,0,0,0,.359-0.7l-0.182-3.88,2.426-3.03a0.8,0.8,0,0,0,.124-0.78Zm-1.6.28,1.318,3.49-2.33,2.91a0.784,0.784,0,0,0-.175.53l0.176,3.73-3.115,2.04a0.81,0.81,0,0,0-.332.46l-0.983,3.59-3.6.99a0.8,0.8,0,0,0-.456.33l-2.046,3.11-3.723-.17a0.8,0.8,0,0,0-.537.17l-2.908,2.33-3.486-1.31a0.7,0.7,0,0,0-.282-0.06,0.694,0.694,0,0,0-.282.06l-3.487,1.31-2.908-2.33a0.8,0.8,0,0,0-.537-0.17l-3.722.17-2.046-3.11a0.8,0.8,0,0,0-.457-0.33l-3.594-.99-0.984-3.59a0.805,0.805,0,0,0-.332-0.46l-3.114-2.04,0.175-3.73a0.778,0.778,0,0,0-.174-0.53l-2.33-2.91,1.317-3.49a0.783,0.783,0,0,0,0-.56l-1.317-3.49,2.33-2.91a0.778,0.778,0,0,0,.174-0.53l-0.175-3.73,3.114-2.04a0.805,0.805,0,0,0,.332-0.46l0.984-3.59,3.594-.99a0.8,0.8,0,0,0,.457-0.33l2.046-3.11,3.722,0.17a0.8,0.8,0,0,0,.537-0.17l2.908-2.33,3.487,1.31a0.784,0.784,0,0,0,.564,0l3.486-1.31,2.908,2.33a0.8,0.8,0,0,0,.537.17l3.723-.17,2.046,3.11a0.8,0.8,0,0,0,.456.33l3.6,0.99,0.983,3.59a0.805,0.805,0,0,0,.332.46l3.115,2.04-0.176,3.73a0.784,0.784,0,0,0,.175.53l2.33,2.91-1.318,3.49A0.794,0.794,0,0,0,457.974,1154.78Zm-7.471-14.07c-0.2-.21-0.4-0.43-0.613-0.64s-0.423-.41-0.639-0.61a0.792,0.792,0,0,0-1.128.05,0.8,0.8,0,0,0,.048,1.13c0.2,0.18.4,0.37,0.59,0.56s0.383,0.39.566,0.59A0.8,0.8,0,1,0,450.5,1140.71Zm-4.088-3.43a20.392,20.392,0,0,0-26.557,30.32,0.785,0.785,0,0,0,.612.28,0.824,0.824,0,0,0,.514-0.18,0.8,0.8,0,0,0,.1-1.13,18.793,18.793,0,0,1,24.477-27.94,0.809,0.809,0,0,0,1.1-.25A0.8,0.8,0,0,0,446.415,1137.28Zm6.267,6.27a0.8,0.8,0,1,0-1.346.86,18.79,18.79,0,0,1-27.944,24.47,0.8,0.8,0,0,0-1.028,1.23,20.332,20.332,0,0,0,13.105,4.77c0.277,0,.556-0.01.835-0.02A20.391,20.391,0,0,0,452.682,1143.55Zm-21.274,4.22a10.169,10.169,0,0,1-1.1,1.01,1.657,1.657,0,0,0-.769-0.19h-5.111a1.652,1.652,0,0,0-1.65,1.65v13.63a1.652,1.652,0,0,0,1.65,1.65h5.111a1.644,1.644,0,0,0,1.443-.85h13.04a2.5,2.5,0,0,0,2.5-2.5,2.456,2.456,0,0,0-.348-1.27,2.527,2.527,0,0,0,1.2-2.14,2.483,2.483,0,0,0-.348-1.27,2.5,2.5,0,0,0,.764-3.55,2.926,2.926,0,0,0-1.64-5.35H440.77a8.835,8.835,0,0,0,2.326-4.64,3.23,3.23,0,0,0-.777-2.5,2.823,2.823,0,0,0-2.094-.96H440.2a2.9,2.9,0,0,0-2.064.85,2.864,2.864,0,0,0-.862,2.05,3.751,3.751,0,0,1-1.062,1.46,8.372,8.372,0,0,1-3.17,1.85m-1.851,8.65a0.8,0.8,0,1,0-1.6,0v8.52a0.05,0.05,0,0,1-.053.05h-5.111a0.05,0.05,0,0,1-.053-0.05v-13.63a0.05,0.05,0,0,1,.053-0.05h5.111a0.05,0.05,0,0,1,.053.05v1.7a0.8,0.8,0,1,0,1.6,0m1.384-3.08a2.349,2.349,0,0,1,.96-0.64,9.824,9.824,0,0,0,3.875-2.31,4.159,4.159,0,0,0,1.461-2.5,1.31,1.31,0,0,1,.389-0.94,1.339,1.339,0,0,1,.954-0.38,1.206,1.206,0,0,1,.914.42,1.652,1.652,0,0,1,.384,1.26,8.449,8.449,0,0,1-3.233,5,0.8,0.8,0,0,0-.25.89,0.809,0.809,0,0,0,.753.53h7.371a1.33,1.33,0,1,1,0,2.66h-0.426a0.8,0.8,0,0,0,0,1.6,0.905,0.905,0,1,1,0,1.81h-0.852a0.8,0.8,0,1,0,0,1.59,0.905,0.905,0,1,1,0,1.81h-0.852a0.8,0.8,0,0,0,0,1.6,0.905,0.905,0,1,1,0,1.81H431.188v-7.72m-4.2,5.16a0.8,0.8,0,1,0,.8.8A0.8,0.8,0,0,0,426.983,1160.51Z" transform="translate(-381 -1100)"/>
</svg>
