<svg xmlns="http://www.w3.org/2000/svg" width="54" height="48.22" viewBox="0 0 54 48.22">
  <defs>
    <style>
      .cls-1 {
        fill: #ff301c;
        fill-rule: evenodd;
      }
    </style>
  </defs>
  <path id="_100_" data-name="100%" class="cls-1" d="M1387.4,1133H1346a3.585,3.585,0,0,0-3.6,3.57v28.57h-4.5a0.9,0.9,0,0,0-.9.9,3.585,3.585,0,0,0,3.6,3.57h26.1v10.71a0.9,0.9,0,0,0,.9.9,0.944,0.944,0,0,0,.64-0.26l4.76-4.73,4.76,4.73a0.9,0.9,0,0,0,.98.19,0.9,0.9,0,0,0,.56-0.83v-10.71h2.7a3.585,3.585,0,0,0,3.6-3.57v-28.58h4.5a0.894,0.894,0,0,0,.9-0.89A3.585,3.585,0,0,0,1387.4,1133Zm-3.6,3.57v28.57h-3.6v1.79h3.36a1.809,1.809,0,0,1-1.56.89h-2.7v-0.89h-1.8v11.24l-3.86-3.84a0.931,0.931,0,0,0-1.28,0l-3.86,3.84v-11.24h-1.8v0.89h-26.1a1.809,1.809,0,0,1-1.56-.89h26.76v-1.79h-21.6v-28.57a1.8,1.8,0,0,1,1.8-1.79h38.3A3.526,3.526,0,0,0,1383.8,1136.57Zm2.04-.89a1.813,1.813,0,0,1,3.12,0h-3.12Zm-4.36,25.26-1.15-2.05,1.16-2.04a0.9,0.9,0,0,0-.34-1.22,0.488,0.488,0,0,1-.07-0.03l-2.15-.98-0.28-2.33a0.888,0.888,0,0,0-1-.78,0.127,0.127,0,0,0-.06.01l-2.32.45-1.61-1.72a0.93,0.93,0,0,0-1.31-.01l-0.01.01-1.61,1.72-2.32-.45a0.891,0.891,0,0,0-1.05.7,0.17,0.17,0,0,0-.01.07l-0.28,2.33-2.15.98a0.881,0.881,0,0,0-.44,1.18c0.01,0.02.02,0.05,0.03,0.07l1.16,2.04-1.16,2.05a0.9,0.9,0,0,0,.34,1.22,0.488,0.488,0,0,1,.07.03l2.15,0.98,0.28,2.33a0.888,0.888,0,0,0,1,.78,0.127,0.127,0,0,0,.06-0.01l2.32-.45,1.61,1.72a0.91,0.91,0,0,0,1.27.05l0.05-.05,1.61-1.72,2.32,0.45a0.876,0.876,0,0,0,.7-0.15,0.906,0.906,0,0,0,.36-0.62l0.28-2.33,2.14-.98a0.878,0.878,0,0,0,.45-1.18A0.251,0.251,0,0,0,1381.48,1160.94Zm-2.96-1.61,0.92,1.64-1.72.78a0.917,0.917,0,0,0-.52.71l-0.22,1.87-1.86-.37a0.885,0.885,0,0,0-.83.27l-1.29,1.38-1.29-1.38a0.907,0.907,0,0,0-.66-0.28,1.028,1.028,0,0,0-.17.01l-1.86.37-0.22-1.87a0.917,0.917,0,0,0-.52-0.71l-1.72-.78,0.92-1.64a0.848,0.848,0,0,0,0-.87h0l-0.92-1.64,1.72-.78a0.917,0.917,0,0,0,.52-0.71l0.22-1.87,1.86,0.37a0.885,0.885,0,0,0,.83-0.27l1.29-1.39,1.29,1.38a0.862,0.862,0,0,0,.83.27l1.86-.36,0.22,1.87a0.9,0.9,0,0,0,.52.7l1.72,0.79-0.92,1.64A0.848,0.848,0,0,0,1378.52,1159.33Zm-5.52-4.9a4.465,4.465,0,1,0,4.5,4.46A4.479,4.479,0,0,0,1373,1154.43Zm0,7.14a2.68,2.68,0,1,1,2.7-2.68A2.691,2.691,0,0,1,1373,1161.57Zm-16.2-23.21h14.4v1.78h-14.4v-1.78Zm-9,5.35h32.4v1.79h-32.4v-1.79Zm0,3.58h32.4v1.78h-32.4v-1.78Zm0.9,11.6h11.7v1.79h-11.7v-1.79Z" transform="translate(-1337 -1133)"/>
</svg>
