<svg xmlns="http://www.w3.org/2000/svg" width="52.844" height="47.09" viewBox="0 0 52.844 47.09">
  <defs>
    <style>
      .cls-1 {
        fill: #ff301c;
        fill-rule: evenodd;
      }
    </style>
  </defs>
  <path id="_15" data-name="15" class="cls-1" d="M890.048,1145.72a0.684,0.684,0,0,0-.694.68v0.74a0.695,0.695,0,0,0,1.389,0v-0.74A0.685,0.685,0,0,0,890.048,1145.72Zm8.9,0a0.684,0.684,0,0,0-.694.68v0.74a0.694,0.694,0,0,0,1.388,0v-0.74A0.684,0.684,0,0,0,898.951,1145.72Zm-1.731,5.35a0.706,0.706,0,0,0-.982-0.01,3.067,3.067,0,0,1-3.476,0,0.706,0.706,0,0,0-.982.01,0.68,0.68,0,0,0,.007.97,4.385,4.385,0,0,0,5.426,0A0.68,0.68,0,0,0,897.22,1151.07Zm-6.43-7.56h-1.483a0.693,0.693,0,0,0-.7.69,0.685,0.685,0,0,0,.7.68h1.483a0.684,0.684,0,0,0,.694-0.68A0.692,0.692,0,0,0,890.79,1143.51Zm8.9,0h-1.484a0.693,0.693,0,0,0-.694.69,0.684,0.684,0,0,0,.694.68h1.484a0.684,0.684,0,0,0,.694-0.68A0.692,0.692,0,0,0,899.693,1143.51Zm9.673,20.28-5-1.52a1.629,1.629,0,0,0-.039-0.46,1.57,1.57,0,0,0-.843-1.05l-3.094-1.54v-2.18a10.274,10.274,0,0,0,4.352-7h0.412a2.625,2.625,0,0,0,2.642-2.27,2.533,2.533,0,0,0-.645-1.96,2.624,2.624,0,0,0-.826-0.6v-7.64a5.13,5.13,0,0,0-5.145-5.1h-0.118a8.83,8.83,0,0,0-5.122-1.47,17.787,17.787,0,0,0-8.634,1.93,29.136,29.136,0,0,1-4.312,1.65,0.706,0.706,0,0,0-.432.37,0.679,0.679,0,0,0-.014.56,6.313,6.313,0,0,0,1.132,1.63,5.587,5.587,0,0,0-1,3.62v4.48a2.515,2.515,0,0,0,1.065,4.8h0.518a10.271,10.271,0,0,0,4.352,7v2.18l-3.094,1.54a1.576,1.576,0,0,0-.843,1.05,1.629,1.629,0,0,0-.039.46l-5,1.52a5.078,5.078,0,0,0-3.633,4.88v8.64a0.694,0.694,0,0,0,1.388,0v-8.64a3.7,3.7,0,0,1,2.653-3.56l5.2-1.59,0.918,1.22-1.043,1.03a2.142,2.142,0,0,0-.409,2.49l1.988,3.95h-1.893v-0.79a0.694,0.694,0,0,0-1.388,0v0.79H880.4a0.684,0.684,0,0,0-.694.68v4.42a0.692,0.692,0,0,0,.694.69h7.419a0.693,0.693,0,0,0,.694-0.69v-1.5l0.911,1.81a0.7,0.7,0,0,0,.621.38,0.687,0.687,0,0,0,.62-1l-4.715-9.35a0.789,0.789,0,0,1,.148-0.91l1.47-1.45a0.686,0.686,0,0,0,.064-0.9l-1.573-2.08a0.218,0.218,0,0,1-.037-0.18,0.227,0.227,0,0,1,.113-0.14l2.734-1.36,1.93,6.57a0.706,0.706,0,0,0,.861.47,0.694,0.694,0,0,0,.472-0.86l-0.3-1.03a8.309,8.309,0,0,0,5.336,0l-2.668,9.07-1.5-5.09a0.693,0.693,0,0,0-1.333.38l2.164,7.36a0.694,0.694,0,0,0,1.333,0l4.961-16.87,2.734,1.36a0.227,0.227,0,0,1,.113.14,0.215,0.215,0,0,1-.038.18l-1.572,2.08a0.686,0.686,0,0,0,.064.9l1.47,1.45a0.787,0.787,0,0,1,.148.91L898.33,1177a0.694,0.694,0,0,0,.311.93,0.681,0.681,0,0,0,.31.07,0.7,0.7,0,0,0,.621-0.38l4.715-9.36a2.14,2.14,0,0,0-.408-2.49l-1.043-1.03,0.918-1.22,5.2,1.59a3.7,3.7,0,0,1,2.653,3.56v8.64a0.695,0.695,0,0,0,1.389,0v-8.64A5.078,5.078,0,0,0,909.366,1163.79Zm-22.238,12.83H881.1v-3.04h2.321v0.05a0.694,0.694,0,0,0,1.388,0v-0.05h2.321v3.04h0Zm0.748-42.43a16.364,16.364,0,0,1,8.061-1.81c2.561,0,4.85,1.06,5.323,2.47a0.693,0.693,0,0,0,.878.43,0.686,0.686,0,0,0,.439-0.87,3.657,3.657,0,0,0-.141-0.35,3.746,3.746,0,0,1,2.5,3.51v7.41h-0.789a0.786,0.786,0,0,1-.79-0.78v-0.74a8.763,8.763,0,0,0-2.429-5.64,0.719,0.719,0,0,0-.7-0.17c-3.853,1.21-9.286,2.23-13.286.22a7.366,7.366,0,0,1-2.706-2.23A34.7,34.7,0,0,0,887.876,1134.19ZM899,1159.55l-1.326,4.51a6.767,6.767,0,0,1-6.346,0L890,1159.55v-1.71a10.341,10.341,0,0,0,9,0v1.71Zm-4.5-2.06a8.923,8.923,0,0,1-8.951-8.88,0.694,0.694,0,0,0-1.388,0v0.05h-0.419a1.173,1.173,0,0,1-.861-0.38,1.13,1.13,0,0,1-.293-0.89,1.226,1.226,0,0,1,1.26-1.03h1.007a2.172,2.172,0,0,0,2.178-2.16v-2.6a0.694,0.694,0,0,0-1.388,0v2.6a0.786,0.786,0,0,1-.79.78h-0.79v-4.22a4.6,4.6,0,0,1,.635-2.68,9.572,9.572,0,0,0,1.5.96,12.874,12.874,0,0,0,5.564,1.34,26.4,26.4,0,0,0,8.445-1.28,7.223,7.223,0,0,1,1.754,4.36v0.74a2.172,2.172,0,0,0,2.178,2.16h1.113a1.155,1.155,0,0,1,1.154,1.27,1.226,1.226,0,0,1-1.26,1.03h-0.314v-0.04a0.692,0.692,0,0,0-.693-0.69h0a0.694,0.694,0,0,0-.694.69A8.926,8.926,0,0,1,894.5,1157.49Zm14.1,15.08h-1.161v-1.15a0.694,0.694,0,0,0-1.388,0v1.15h-1.16a0.69,0.69,0,1,0,0,1.38h1.16v1.15a0.694,0.694,0,0,0,1.388,0v-1.15H908.6A0.69,0.69,0,1,0,908.6,1172.57Zm20.029-25.93a1.2,1.2,0,0,0-.28-0.28h0l-1.316-.93,0.675-1.46a1.165,1.165,0,0,0-.57-1.55,1.06,1.06,0,0,0-.387-0.11l-1.6-.14L925,1140.56a1.167,1.167,0,0,0-1.273-1.05,1.255,1.255,0,0,0-.381.1l-1.461.68-0.929-1.32a1.171,1.171,0,0,0-1.631-.28,1.22,1.22,0,0,0-.28.28l-0.928,1.31-1.464-.67a1.167,1.167,0,0,0-1.552.57,1.147,1.147,0,0,0-.1.39l-0.144,1.6-1.6.14a1.175,1.175,0,0,0-.954,1.66l0.675,1.46-1.316.93a1.168,1.168,0,0,0-.28,1.63,1.2,1.2,0,0,0,.28.28l1.316,0.93-0.675,1.46a1.165,1.165,0,0,0,.57,1.55,1.294,1.294,0,0,0,.386.11l1.6,0.14,0.145,1.6a1.176,1.176,0,0,0,.579.91v7.5a0.63,0.63,0,0,0,.632.63,0.663,0.663,0,0,0,.446-0.18l3.343-3.35,3.342,3.35a0.632,0.632,0,0,0,1.078-.45v-7.5a1.175,1.175,0,0,0,.58-0.91l0.144-1.6,1.6-.14a1.175,1.175,0,0,0,.957-1.66l-0.676-1.46,1.317-.93A1.168,1.168,0,0,0,928.625,1146.64Zm-5.468,14.31-2.711-2.72a0.644,0.644,0,0,0-.893,0l-2.711,2.72v-6.02l1.274-.59,0.929,1.32a1.171,1.171,0,0,0,1.631.28,1.2,1.2,0,0,0,.28-0.28l0.928-1.32,1.273,0.59v6.02h0Zm3.08-12.74a1.174,1.174,0,0,0-.387,1.45l0.654,1.41-1.548.14a1.163,1.163,0,0,0-1.061,1.06l-0.141,1.55-1.41-.65a1.166,1.166,0,0,0-1.447.38l-0.9,1.27-0.9-1.27a1.181,1.181,0,0,0-1.447-.39l-1.411.66-0.139-1.55a1.17,1.17,0,0,0-1.06-1.06l-1.55-.14,0.652-1.41a1.174,1.174,0,0,0-.386-1.45l-1.272-.9,1.272-.89a1.173,1.173,0,0,0,.387-1.45l-0.653-1.41,1.547-.14a1.173,1.173,0,0,0,1.062-1.06l0.14-1.55,1.41,0.65a1.164,1.164,0,0,0,1.446-.38l0.9-1.28,0.9,1.28a1.166,1.166,0,0,0,1.447.38l1.412-.65,0.139,1.55a1.17,1.17,0,0,0,1.06,1.06l1.549,0.14-0.653,1.41a1.174,1.174,0,0,0,.387,1.45l1.272,0.89ZM920,1141.63a5.685,5.685,0,1,0,5.683,5.68A5.686,5.686,0,0,0,920,1141.63Zm0,10.1a4.42,4.42,0,1,1,4.42-4.42A4.414,4.414,0,0,1,920,1151.73Zm3.789-16.41h1.263v1.26h-1.263v-1.26Zm2.525,0h1.263v1.26h-1.263v-1.26Zm-1.262-1.27h1.262v1.27h-1.262v-1.27Zm0,2.53h1.262v1.26h-1.262v-1.26Zm-8.21-4.42h1.263v1.26h-1.263v-1.26Zm2.526,0h1.263v1.26h-1.263v-1.26Zm-1.263-1.26h1.263v1.26h-1.263v-1.26Zm0,2.52h1.263v1.26h-1.263v-1.26Z" transform="translate(-876 -1130.91)"/>
</svg>
