<svg xmlns="http://www.w3.org/2000/svg" width="46" height="46" viewBox="0 0 46 46">
  <defs>
    <style>
      .cls-1 {
        fill: #fc2f1c;
        fill-rule: evenodd;
      }
    </style>
  </defs>
  <path id="_7" data-name="7" class="cls-1" d="M1146.51,1134.95h-4.28v-1.26a2.7,2.7,0,0,0-5.4,0v1.26h-15.09v-1.26a2.7,2.7,0,0,0-5.39,0v1.29a0.986,0.986,0,0,0-.24-0.03h-3.58a4.5,4.5,0,0,0-4.49,4.49v15.31a0.9,0.9,0,0,0,1.8,0v-10.54h32.39a0.9,0.9,0,0,0,0-1.8h-32.39v-2.97a2.691,2.691,0,0,1,2.69-2.69h3.58a0.986,0.986,0,0,0,.24-0.03v1.15a2.7,2.7,0,1,0,5.39,0v-1.12h15.09v1.12a2.7,2.7,0,0,0,5.4,0v-1.12h4.28a2.7,2.7,0,0,1,2.69,2.69v34.14a1.615,1.615,0,1,1-3.23,0v-2.32a0.9,0.9,0,0,0-.9-0.9h-10.45a0.9,0.9,0,0,0,0,1.8h9.55v1.42a3.387,3.387,0,0,0,.41,1.62h-36.17a1.611,1.611,0,0,1-1.61-1.62v-1.42h20.11a0.9,0.9,0,0,0,0-1.8h-8.98a7.37,7.37,0,1,0-9.6,0h-2.43a0.9,0.9,0,0,0-.9.9v2.32a3.416,3.416,0,0,0,3.41,3.42h39.18a3.416,3.416,0,0,0,3.41-3.42v-34.14A4.5,4.5,0,0,0,1146.51,1134.95Zm-26.57,2.92a0.9,0.9,0,1,1-1.79,0v-4.18a0.9,0.9,0,0,1,1.79,0v4.18Zm20.49,0a0.9,0.9,0,1,1-1.8,0v-4.18a0.9,0.9,0,0,1,1.8,0v4.18Zm-32.87,26.91a5.57,5.57,0,1,1,5.57,5.57A5.578,5.578,0,0,1,1107.56,1164.78Zm39.51-22.11a0.9,0.9,0,0,0-.63-0.26,0.888,0.888,0,0,0-.9.9,0.919,0.919,0,0,0,.26.63,0.909,0.909,0,0,0,.64.27,0.869,0.869,0,0,0,.63-0.27,0.886,0.886,0,0,0,.27-0.63A0.909,0.909,0,0,0,1147.07,1142.67Zm-15.24,27.95a0.905,0.905,0,0,0-1.27,0,0.918,0.918,0,0,0,0,1.28,0.905,0.905,0,0,0,1.27,0A0.918,0.918,0,0,0,1131.83,1170.62Zm-6.5-12.31a3.415,3.415,0,1,0,3.41,3.42A3.418,3.418,0,0,0,1125.33,1158.31Zm0,5.03a1.615,1.615,0,1,1,1.61-1.61A1.611,1.611,0,0,1,1125.33,1163.34Zm8.38-5.03a3.415,3.415,0,1,0,3.42,3.42A3.416,3.416,0,0,0,1133.71,1158.31Zm0,5.03a1.615,1.615,0,1,1,1.62-1.61A1.618,1.618,0,0,1,1133.71,1163.34Zm8.39-5.03a3.415,3.415,0,1,0,3.41,3.42A3.418,3.418,0,0,0,1142.1,1158.31Zm0,5.03a1.615,1.615,0,1,1,1.61-1.61A1.618,1.618,0,0,1,1142.1,1163.34Zm-25.16-14.37a3.415,3.415,0,1,0,3.42,3.41A3.414,3.414,0,0,0,1116.94,1148.97Zm0,5.03a1.62,1.62,0,1,1,1.62-1.62A1.626,1.626,0,0,1,1116.94,1154Zm16.77-5.03a3.415,3.415,0,1,0,3.42,3.41A3.414,3.414,0,0,0,1133.71,1148.97Zm0,5.03a1.62,1.62,0,1,1,1.62-1.62A1.626,1.626,0,0,1,1133.71,1154Zm8.39-5.03a3.415,3.415,0,1,0,3.41,3.41A3.416,3.416,0,0,0,1142.1,1148.97Zm0,5.03a1.62,1.62,0,1,1,1.61-1.62A1.626,1.626,0,0,1,1142.1,1154Zm-16.77-5.03a3.415,3.415,0,1,0,3.41,3.41A3.416,3.416,0,0,0,1125.33,1148.97Zm0,5.03a1.62,1.62,0,1,1,1.61-1.62A1.62,1.62,0,0,1,1125.33,1154Zm-9,8.59a0.9,0.9,0,0,0-1.27,0l-2.93,2.93-1-1a0.9,0.9,0,1,0-1.27,1.27l1.64,1.63a0.886,0.886,0,0,0,.63.27,0.909,0.909,0,0,0,.64-0.27l3.56-3.56A0.9,0.9,0,0,0,1116.33,1162.59Zm1.6,7.77a7.37,7.37,0,1,0-9.6,0m-0.77-5.58a5.57,5.57,0,1,1,5.57,5.57A5.578,5.578,0,0,1,1107.56,1164.78Zm8.77-2.19a0.9,0.9,0,0,0-1.27,0l-2.93,2.93-1-1a0.9,0.9,0,1,0-1.27,1.27l1.64,1.63a0.886,0.886,0,0,0,.63.27,0.909,0.909,0,0,0,.64-0.27l3.56-3.56A0.9,0.9,0,0,0,1116.33,1162.59Z" transform="translate(-1105 -1131)"/>
</svg>
