<svg xmlns="http://www.w3.org/2000/svg" width="22.438" height="12.66" viewBox="0 0 22.438 12.66">
  <defs>
    <style>
      .cls-1 {
        fill-rule: evenodd;
      }
    </style>
  </defs>
  <path id="вк" class="cls-1" d="M509.335,4706.66a0.772,0.772,0,0,0-.076-0.14,11.425,11.425,0,0,0-2.233-2.56l-0.023-.02-0.012-.01-0.012-.02h-0.011c-0.5-.47-0.815-0.78-0.947-0.94a0.888,0.888,0,0,1-.164-0.94,8.955,8.955,0,0,1,1.052-1.52c0.32-.4.573-0.73,0.76-0.98,1.348-1.77,1.933-2.9,1.753-3.4l-0.069-.11a0.634,0.634,0,0,0-.362-0.19,1.8,1.8,0,0,0-.749-0.03l-3.367.02a0.378,0.378,0,0,0-.233.01l-0.152.03-0.059.03-0.047.03a0.717,0.717,0,0,0-.128.13,0.621,0.621,0,0,0-.117.2,18.736,18.736,0,0,1-1.251,2.6c-0.288.48-.553,0.89-0.795,1.24a6.4,6.4,0,0,1-.608.78,4.834,4.834,0,0,1-.444.4,0.4,0.4,0,0,1-.3.12c-0.07-.01-0.136-0.03-0.2-0.04a0.8,0.8,0,0,1-.263-0.29,1.264,1.264,0,0,1-.134-0.45c-0.023-.18-0.037-0.33-0.041-0.47s0-.31.006-0.55,0.012-.4.012-0.49c0-.29.006-0.61,0.017-0.95s0.021-.61.029-0.81,0.012-.42.012-0.64a2.746,2.746,0,0,0-.041-0.53,1.977,1.977,0,0,0-.122-0.37,0.577,0.577,0,0,0-.24-0.27,1.274,1.274,0,0,0-.392-0.16,8.222,8.222,0,0,0-1.578-.15,7.631,7.631,0,0,0-2.794.28,1.566,1.566,0,0,0-.444.34c-0.14.17-.16,0.27-0.059,0.28a1.451,1.451,0,0,1,.994.5l0.07,0.14a2.086,2.086,0,0,1,.164.53,5.174,5.174,0,0,1,.105.84,8.93,8.93,0,0,1,0,1.45c-0.039.4-.076,0.71-0.111,0.94a1.878,1.878,0,0,1-.158.54,1.943,1.943,0,0,1-.14.25,0.277,0.277,0,0,1-.059.06,0.848,0.848,0,0,1-.315.06,0.813,0.813,0,0,1-.4-0.16,2.885,2.885,0,0,1-.485-0.45,6.026,6.026,0,0,1-.567-0.79q-0.315-.51-0.654-1.2l-0.187-.34c-0.117-.21-0.277-0.53-0.48-0.94s-0.382-.81-0.538-1.2a0.793,0.793,0,0,0-.28-0.37l-0.058-.03a0.681,0.681,0,0,0-.187-0.1,1.244,1.244,0,0,0-.269-0.08l-3.2.03a0.807,0.807,0,0,0-.666.22l-0.047.07a0.344,0.344,0,0,0-.035.18,0.858,0.858,0,0,0,.07.31q0.7,1.635,1.526,3.15c0.549,1.01,1.027,1.82,1.432,2.44s0.818,1.2,1.239,1.74,0.7,0.9.836,1.06,0.243,0.27.321,0.34l0.293,0.28a6.531,6.531,0,0,0,.824.67c0.362,0.25.764,0.51,1.2,0.76a6.676,6.676,0,0,0,1.537.61,5.339,5.339,0,0,0,1.707.19h1.344a0.949,0.949,0,0,0,.62-0.25l0.047-.06a0.9,0.9,0,0,0,.087-0.21,1.2,1.2,0,0,0,.041-0.32,3.846,3.846,0,0,1,.076-0.9,2.483,2.483,0,0,1,.2-0.6,1.53,1.53,0,0,1,.251-0.34,1.227,1.227,0,0,1,.2-0.17c0.039-.02.07-0.03,0.093-0.04a0.758,0.758,0,0,1,.661.18,4.025,4.025,0,0,1,.713.67q0.333,0.405.8,0.9a5.488,5.488,0,0,0,.818.74l0.234,0.14a3.209,3.209,0,0,0,.608.25,1.279,1.279,0,0,0,.655.06l2.992-.05a1.445,1.445,0,0,0,.69-0.14,0.572,0.572,0,0,0,.292-0.32,0.876,0.876,0,0,0,.006-0.39A1.494,1.494,0,0,0,509.335,4706.66Z" transform="translate(-487 -4695.22)"/>
</svg>
