<svg xmlns="http://www.w3.org/2000/svg" width="32" height="24" viewBox="0 0 32 24">
  <defs>
    <style>
      .cls-1 {
        fill: #fff;
        fill-rule: evenodd;
      }
    </style>
  </defs>
  <path id="глаз" class="cls-1" d="M1470.59,229.24a7.8,7.8,0,0,0,1.41-4.527,9.1,9.1,0,0,0-.14-1.5l-5,8.964A7.9,7.9,0,0,0,1470.59,229.24Zm0.73-12.348a0.474,0.474,0,0,0,.02-0.161,0.551,0.551,0,0,0-.29-0.482c-0.03-.024-0.15-0.092-0.35-0.206s-0.38-.223-0.56-0.33-0.37-.218-0.59-0.331-0.4-.205-0.55-0.276a0.985,0.985,0,0,0-.32-0.108,0.556,0.556,0,0,0-.5.286l-0.97,1.732a17.43,17.43,0,0,0-3.21-.3,16.954,16.954,0,0,0-8.86,2.428,20.829,20.829,0,0,0-6.78,6.625,2.29,2.29,0,0,0,0,2.465,21.214,21.214,0,0,0,3.72,4.375,18.292,18.292,0,0,0,4.71,3.09,6.491,6.491,0,0,0-.79,1.553,0.565,0.565,0,0,0,.29.5,15.119,15.119,0,0,0,2.39,1.25,0.565,0.565,0,0,0,.5-0.286l0.87-1.589q1.9-3.375,5.65-10.125T1471.32,216.892Zm-13.41,16.8a17.572,17.572,0,0,1-7.62-6.7,17.51,17.51,0,0,1,6.8-6.3,7.766,7.766,0,0,0-1.09,4.017,7.9,7.9,0,0,0,.87,3.625,7.994,7.994,0,0,0,2.43,2.839Zm6.7-12.947a0.834,0.834,0,0,1-.61.25,3.7,3.7,0,0,0-3.71,3.714,0.854,0.854,0,0,1-.25.608,0.869,0.869,0,0,1-1.22,0,0.816,0.816,0,0,1-.25-0.608,5.46,5.46,0,0,1,5.43-5.428,0.834,0.834,0,0,1,.61.25A0.862,0.862,0,0,1,1464.61,220.749Zm15.03,5.017a17.866,17.866,0,0,0-2.58-3.285,21.114,21.114,0,0,0-3.26-2.732l-1.12,2a18.125,18.125,0,0,1,5.03,5.25,18.38,18.38,0,0,1-5.38,5.482,14.807,14.807,0,0,1-7.01,2.446l-1.32,2.358a17.063,17.063,0,0,0,7.49-1.7,19.309,19.309,0,0,0,6.21-4.768,19.816,19.816,0,0,0,1.94-2.589A2.29,2.29,0,0,0,1479.64,225.766Z" transform="translate(-1448 -215)"/>
</svg>
