<svg xmlns="http://www.w3.org/2000/svg" width="128" height="146.03" viewBox="0 0 128 146.03">
  <defs>
    <style>
      .cls-1 {
        fill: #fff;
        fill-rule: evenodd;
        opacity: 0.12;
      }
    </style>
  </defs>
  <path id="зуб" class="cls-1" d="M591.333,1552.23s29.333-5.55,29.333,8.55-10.222,14.24-18.666,14.24-43.746-22.79-69.334-22.79S506,1579.99,506,1589.27s7.1,96.88,37.334,96.88,20.3-45.59,24-45.59,3.248,48.44,24,48.44,29.333-38.42,29.333-62.69-0.387-28.49-2.667-28.49-7.814,76.93-26.666,76.93c-10.858,0,3.552-51.29-24-51.29-24.282,0-8.093,48.44-24,48.44-11.547,0-24-65.37-24-76.93s1.015-28.49,16-28.49c12.441,0,41.682,22.79,66.667,22.79s32-18.91,32-28.49S617.858,1531.26,591.333,1552.23Z" transform="translate(-506 -1542.97)"/>
</svg>
