<svg xmlns="http://www.w3.org/2000/svg" width="16" height="16" viewBox="0 0 16 16">
  <defs>
    <style>
      .cls-1 {
        fill-rule: evenodd;
      }
    </style>
  </defs>
  <path id="инстаграм" class="cls-1" d="M572.4,4693H559.6a1.6,1.6,0,0,0-1.6,1.6v12.8a1.6,1.6,0,0,0,1.6,1.6h12.8a1.6,1.6,0,0,0,1.6-1.6v-12.8A1.6,1.6,0,0,0,572.4,4693Zm-6.4,4.8a3.2,3.2,0,1,1-3.2,3.2A3.209,3.209,0,0,1,566,4697.8Zm-6,9.6a0.378,0.378,0,0,1-.4-0.4v-6.8h1.68a2.722,2.722,0,0,0-.08.8,4.8,4.8,0,0,0,9.6,0,2.722,2.722,0,0,0-.08-0.8h1.68v6.8a0.378,0.378,0,0,1-.4.4H560Zm12.4-10.8a0.378,0.378,0,0,1-.4.4h-1.6a0.378,0.378,0,0,1-.4-0.4V4695a0.378,0.378,0,0,1,.4-0.4H572a0.378,0.378,0,0,1,.4.4v1.6Z" transform="translate(-558 -4693)"/>
</svg>
