<svg xmlns="http://www.w3.org/2000/svg" width="20" height="14" viewBox="0 0 20 14">
  <defs>
    <style>
      .cls-1 {
        fill: #fe2b29;
        fill-rule: evenodd;
      }
    </style>
  </defs>
  <path id="почта" class="cls-1" d="M1180.53,4737.68l-7.08,5.94a1.5,1.5,0,0,0,.99.38h17.12a1.5,1.5,0,0,0,.99-0.38l-7.08-5.94-2.47,2.12Zm11.03-7.68h-17.12a1.453,1.453,0,0,0-.99.38l9.55,8.02,9.55-8.02A1.435,1.435,0,0,0,1191.56,4730ZM1173,4742.86l6.9-5.75-6.9-5.88v11.63Zm20,0v-11.64l-6.9,5.89Z" transform="translate(-1173 -4730)"/>
</svg>
