<svg xmlns="http://www.w3.org/2000/svg" width="18" height="29" viewBox="0 0 18 29">
  <defs>
    <style>
      .cls-1 {
        fill: #fe2b29;
        fill-rule: evenodd;
      }
    </style>
  </defs>
  <path id="телефон" class="cls-1" d="M1282.68,55h-13.36a2.283,2.283,0,0,0-2.31,2.258V81.743A2.281,2.281,0,0,0,1269.32,84h13.36a2.287,2.287,0,0,0,2.31-2.256V57.254A2.289,2.289,0,0,0,1282.68,55Zm-9.98,1.371h6.6a0.643,0.643,0,0,1,0,1.087h-6.6A0.643,0.643,0,0,1,1272.7,56.367Zm3.3,25.4a1.441,1.441,0,1,1,1.47-1.442A1.458,1.458,0,0,1,1276,81.771Zm7.26-4.936h-14.52V58.806h14.52V76.835Z" transform="translate(-1267 -55)"/>
</svg>
