<?xml version="1.0" encoding="UTF-8"?>
<!DOCTYPE svg PUBLIC "-//W3C//DTD SVG 1.1//EN" "http://www.w3.org/Graphics/SVG/1.1/DTD/svg11.dtd">
<!-- Creator: CorelDRAW X7 -->
<svg xmlns="http://www.w3.org/2000/svg" xml:space="preserve" width="677.327mm" height="96.94mm" version="1.1" style="shape-rendering:geometricPrecision; text-rendering:geometricPrecision; image-rendering:optimizeQuality; fill-rule:evenodd; clip-rule:evenodd"
viewBox="0 0 67733 9694"
 xmlns:xlink="http://www.w3.org/1999/xlink">
 <defs>
  <style type="text/css">
   <![CDATA[
    .fil0 {fill:#FEFEFE}
    .fil2 {fill:#EDEDED;fill-rule:nonzero}
    .fil1 {fill:#FF2F1B;fill-rule:nonzero}
   ]]>
  </style>
 </defs>
 <g id="Слой_x0020_1">
  <metadata id="CorelCorpID_0Corel-Layer"/>
  <path class="fil0" d="M38741 9526c-17662,436 -31168,-2605 -38706,-4897l0 -4609c-11,-7 -23,-14 -35,-20l0 9694 67733 0 0 -2818c-6648,1863 -13521,2805 -20426,2799 -2916,0 -5771,-43 -8566,-149l0 0z"/>
  <path class="fil1" d="M35 0l0 4629c8502,2585 24597,6123 45685,4550l-22792 -9179 -22893 0z"/>
  <path class="fil2" d="M0 0c13801,8058 29395,9675 47307,9675 6905,6 13778,-936 20426,-2799l0 -6876 -67733 0z"/>
 </g>
</svg>
