<?xml version="1.0" encoding="UTF-8"?>
<!DOCTYPE svg PUBLIC "-//W3C//DTD SVG 1.1//EN" "http://www.w3.org/Graphics/SVG/1.1/DTD/svg11.dtd">
<!-- Creator: CorelDRAW X7 -->
<svg xmlns="http://www.w3.org/2000/svg" xml:space="preserve" version="1.1" style="shape-rendering:geometricPrecision; text-rendering:geometricPrecision; image-rendering:optimizeQuality; fill-rule:evenodd; clip-rule:evenodd"
viewBox="0 0 21000 21000"
 xmlns:xlink="http://www.w3.org/1999/xlink">
  <path id="часы" class="fil0" d="M10500 0c-5800,0 -10500,4700 -10500,10500 0,5800 4700,10500 10500,10500 5800,0 10500,-4700 10500,-10500l0 0c0,-5800 -4700,-10500 -10500,-10500zm4500 12500l-4400 0c0,0 0,0 -100,0 -100,0 0,0 0,0 -400,0 -700,-300 -700,-700l0 -7400c0,-400 300,-700 700,-700 400,0 700,300 700,700 0,0 0,0 0,0l0 6600 3800 0c400,0 700,300 700,700 0,400 -200,800 -700,800 0,0 0,0 0,0z"/>
</svg>
