<?xml version="1.0" encoding="UTF-8"?>
<!DOCTYPE svg PUBLIC "-//W3C//DTD SVG 1.1//EN" "http://www.w3.org/Graphics/SVG/1.1/DTD/svg11.dtd">
<!-- Creator: CorelDRAW X7 -->
<svg xmlns="http://www.w3.org/2000/svg" xml:space="preserve" version="1.1" style="shape-rendering:geometricPrecision; text-rendering:geometricPrecision; image-rendering:optimizeQuality; fill-rule:evenodd; clip-rule:evenodd"
viewBox="0 0 1623 1623"
 xmlns:xlink="http://www.w3.org/1999/xlink">
  <path class="fil0" d="M1464 140l-151 0 0 -45c0,-52 -42,-95 -95,-95 -52,0 -95,43 -95,95l0 45 -532 0 0 -45c-4,-52 -49,-92 -101,-89 -48,3 -87,41 -90,89l0 46c-2,-1 -5,-1 -8,-1l-126 0c-88,0 -159,71 -159,158l0 540c0,18 14,32 32,32 18,0 32,-14 32,-32l0 -372 1142 0c18,0 32,-14 32,-31 0,-18 -14,-32 -32,-32l-1142 0 0 -105c0,-52 42,-95 95,-95l126 0c3,0 6,0 8,-1l0 41c-3,52 37,97 90,101 52,3 97,-37 101,-90 0,-4 0,-7 0,-11l0 -40 532 0 0 40c0,52 43,95 95,95 53,0 95,-43 95,-95l0 -40 151 0c53,0 95,43 95,95l0 1204c0,32 -25,58 -56,58 -32,0 -58,-26 -58,-57 0,0 0,0 0,-1l0 -81c0,-18 -14,-32 -31,-32l-369 0c-18,0 -32,14 -32,32 0,17 14,31 32,31l337 0 0 50c0,20 5,40 14,58l-1276 0c-31,0 -56,-26 -56,-57 0,0 0,0 0,-1l0 -50 709 0c17,0 32,-14 32,-31 0,-18 -15,-32 -32,-32l-317 0c109,-94 122,-258 28,-367 -93,-109 -258,-121 -367,-28 -108,94 -121,258 -27,367 8,10 17,19 27,28l-85 0c-18,0 -32,14 -32,32l0 81c0,67 54,121 120,121l1382 0c67,0 121,-54 121,-121l0 -1204c0,-87 -71,-158 -159,-158zm-937 103l0 0c2,17 -11,33 -28,35 -18,1 -33,-11 -35,-29 0,-2 0,-4 0,-6l0 -148c2,-17 17,-30 35,-28 15,2 27,13 28,28l0 148zm723 0l0 0c0,17 -14,31 -32,31 -17,0 -32,-14 -32,-31l0 -148c0,-17 15,-32 32,-32 18,0 32,15 32,32l0 148zm-1160 949l0 0c0,-109 88,-196 197,-196 108,0 196,87 196,196 0,109 -88,197 -196,197 -109,-1 -197,-89 -197,-197zm1394 -780l0 0c-6,-6 -14,-9 -22,-9 -17,0 -32,13 -32,31 0,0 0,0 0,1 0,8 4,16 9,22 6,6 14,9 23,9 8,0 16,-3 22,-9 6,-6 10,-14 10,-22 0,-9 -4,-17 -10,-23l0 0zm-537 986l0 0c-13,-12 -33,-12 -45,0 -13,13 -13,33 0,45 12,12 32,12 45,0 12,-12 12,-33 0,-45zm-230 -434l0 0c-66,0 -120,54 -120,120 -1,67 53,121 120,121 66,0 120,-54 121,-121 0,-66 -54,-120 -121,-120l0 0zm0 177l0 0c-31,0 -57,-25 -57,-57 0,-31 25,-57 57,-57 31,0 57,26 57,57 0,0 0,0 0,0 0,32 -25,57 -57,57l0 0zm296 -177l0 0c-67,0 -121,54 -120,120 0,67 54,121 120,121 67,0 120,-54 120,-121 1,-66 -53,-120 -120,-120 0,0 0,0 0,0l0 0zm0 177l0 0c-32,0 -57,-25 -57,-57 0,-31 26,-57 57,-57 32,0 57,26 57,57 0,32 -26,57 -57,57l0 0zm296 -177l0 0c-67,0 -121,54 -121,120 0,67 54,121 120,121 67,0 121,-54 121,-121 0,-66 -54,-120 -120,-120l0 0zm0 177l0 0c-32,0 -57,-25 -57,-57 0,-31 25,-57 56,-57 32,0 58,26 58,57 0,0 0,0 0,0 -1,32 -26,57 -57,57l0 0zm-888 -507l0 0c-66,0 -120,54 -120,121 0,66 54,120 121,120 66,0 120,-54 120,-120 0,-67 -54,-121 -121,-121 0,0 0,0 0,0l0 0zm0 178l0 0c-31,0 -57,-26 -57,-57 0,-32 26,-58 57,-58 32,0 57,26 57,58 0,31 -25,57 -57,57l0 0zm592 -178l0 0c-67,0 -121,54 -120,121 0,66 54,120 120,120 67,0 121,-54 120,-120 0,-67 -54,-121 -120,-121 0,0 0,0 0,0l0 0zm0 178l0 0c-32,0 -57,-26 -57,-57 0,-32 25,-58 57,-58 31,0 57,26 57,58 0,31 -26,57 -57,57l0 0zm296 -178l0 0c-67,0 -121,54 -121,121 0,66 54,120 120,120 67,0 121,-54 121,-120 0,0 0,0 0,0 0,-67 -54,-121 -120,-121l0 0zm0 178l0 0c-32,0 -57,-26 -58,-57 0,-32 26,-57 57,-58 32,0 57,26 58,57 0,0 0,0 0,1 0,31 -26,56 -57,57l0 0zm-592 -178l0 0c-66,0 -120,54 -120,121 -1,66 53,120 120,120 66,0 120,-54 121,-120 0,0 0,0 0,0 -1,-67 -54,-121 -121,-121l0 0zm0 178l0 0c-31,0 -57,-26 -57,-57 0,-32 25,-57 57,-58 31,0 57,26 57,57 0,0 0,0 0,1 0,31 -25,57 -57,57l0 0zm-317 303l0 0c-13,-13 -33,-13 -45,0l-103 103 -36 -35c-11,-13 -31,-15 -45,-3 -13,11 -14,31 -2,45 0,1 1,2 2,3l58 57c6,6 14,10 23,10 8,0 16,-4 22,-10l126 -125c12,-13 11,-33 0,-45l0 0zm56 274l0 0c109,-94 122,-258 28,-367 -93,-109 -258,-121 -367,-28 -108,94 -121,258 -27,367 8,10 17,19 27,28l339 0zm-366 -197l0 0c0,-109 88,-196 197,-196 108,0 196,87 196,196 0,109 -88,197 -196,197 -109,-1 -197,-89 -197,-197zm310 -77l0 0c-13,-13 -33,-13 -45,0l-103 103 -36 -35c-11,-13 -31,-15 -45,-3 -13,11 -14,31 -2,45 0,1 1,2 2,3l58 57c6,6 14,10 23,10 8,0 16,-4 22,-10l126 -125c12,-13 13,-32 1,-45 -1,0 -1,0 -1,0l0 0z"/>
</svg>
