<?xml version="1.0" encoding="UTF-8"?>
<!DOCTYPE svg PUBLIC "-//W3C//DTD SVG 1.1//EN" "http://www.w3.org/Graphics/SVG/1.1/DTD/svg11.dtd">
<!-- Creator: CorelDRAW X7 -->
<svg xmlns="http://www.w3.org/2000/svg" xml:space="preserve" version="1.1" style="shape-rendering:geometricPrecision; text-rendering:geometricPrecision; image-rendering:optimizeQuality; fill-rule:evenodd; clip-rule:evenodd"
viewBox="0 0 23527 21000"
 xmlns:xlink="http://www.w3.org/1999/xlink">
  <path id="_100_" class="fil0" d="M21959 0l-18038 0c-871,0 -1568,697 -1568,1568l0 12461 -1961 0c-218,-44 -392,131 -392,349l0 0c0,871 697,1568 1568,1568l11372 0 0 4662c0,218 174,392 392,392l0 0c87,0 218,-44 261,-131l2092 -2047 2091 2047c131,131 261,131 436,87 130,-43 261,-217 261,-348l0 -4662 1133 0c871,0 1568,-697 1568,-1568l0 -12417 1961 0c218,0 392,-175 392,-393 0,0 0,0 0,0 0,-871 -697,-1568 -1568,-1568zm-1569 1568l0 12461 -1568 0 0 784 1481 0c-131,262 -392,392 -697,392l-1177 0 0 -392 -784 0 0 4880 -1699 -1656c-174,-130 -392,-130 -566,0l-1699 1656 0 -4923 -785 0 0 392 -11328 0c-261,0 -522,-131 -697,-392l11677 0 0 -785 -9411 0 0 -12417c0,-435 348,-784 784,-784l16687 0c-131,218 -218,479 -218,784zm871 -392c218,-392 698,-479 1090,-261 130,87 217,174 261,261l-1351 0zm-1873 10980l-523 -915 523 -872c87,-174 44,-435 -131,-523 0,0 0,0 -43,0l-959 -435 -131 -1002c-43,-218 -217,-349 -435,-349 0,0 0,0 0,0 0,0 0,0 -44,0l-958 218 -697 -741c-175,-174 -392,-174 -567,0l0 0 -740 741 -1002 -174c-218,-44 -436,87 -436,305 0,0 0,0 0,0 0,0 0,0 0,43l-131 1002 -958 436c-175,87 -262,305 -175,523 0,0 0,0 0,0 0,0 0,43 0,43l523 872 -523 915c-87,174 -43,435 131,523 0,0 0,0 44,0l958 435 131 1002c43,218 218,349 436,349 0,0 0,0 0,0 0,0 0,0 43,0l1002 -174 697 740c131,175 392,175 567,44l43 -44 697 -740 1002 174c88,43 218,0 305,-87 88,-44 131,-175 175,-262l130 -1002 915 -435c131,-131 218,-349 131,-610 0,43 0,43 0,0 0,43 0,43 0,0l0 0zm-1307 -697l392 697 -741 348c-130,44 -217,174 -217,305l-88 828 -827 -131c-131,-43 -262,0 -349,131l-566 566 -567 -610c-87,-87 -174,-130 -305,-130 -43,0 -43,0 -87,0l-784 174 -87 -828c0,-131 -87,-261 -218,-305l-741 -305 392 -697c88,-131 88,-261 0,-392l0 0 -392 -697 741 -349c131,-43 218,-174 218,-305l87 -827 828 174c130,43 261,0 348,-131l567 -610 566 610c87,87 218,131 349,131l827 -174 88 827c0,131 87,262 217,305l741 349 -392 697c-44,87 -44,261 0,349l0 0zm-2396 -2135c-1090,0 -1917,871 -1917,1960 0,1089 871,1917 1960,1917 1089,0 1917,-871 1917,-1960 0,-1046 -871,-1917 -1960,-1917 0,0 0,0 0,0l0 0zm0 3137c-654,0 -1177,-523 -1177,-1177 0,-653 523,-1176 1177,-1176 653,0 1176,523 1176,1176 0,654 -523,1177 -1176,1177l0 0zm-7058 -10108l6273 0 0 784 -6273 0 0 -784zm-3922 2309l14117 0 0 784 -14117 0 0 -784zm0 1568l14117 0 0 785 -14117 0 0 -785zm393 5054l5097 0 0 784 -5097 0 0 -784z"/>
</svg>
