<?xml version="1.0" encoding="UTF-8"?>
<!DOCTYPE svg PUBLIC "-//W3C//DTD SVG 1.1//EN" "http://www.w3.org/Graphics/SVG/1.1/DTD/svg11.dtd">
<!-- Creator: CorelDRAW X7 -->
<svg xmlns="http://www.w3.org/2000/svg" xml:space="preserve" version="1.1" style="shape-rendering:geometricPrecision; text-rendering:geometricPrecision; image-rendering:optimizeQuality; fill-rule:evenodd; clip-rule:evenodd"
viewBox="0 0 882 883"
 xmlns:xlink="http://www.w3.org/1999/xlink">
  <path class="fil0" d="M873 822l-212 -212c131,-159 108,-394 -51,-525 -159,-131 -394,-108 -525,51 -131,159 -108,394 51,525 137,113 335,113 473,1l212 211c15,14 38,13 52,-2 12,-14 12,-35 0,-49zm-500 -150l0 0c-164,0 -297,-134 -297,-298 0,-164 133,-298 297,-298 165,0 298,134 298,298 0,0 0,0 0,0 0,164 -133,298 -298,298l0 0z"/>
</svg>
