<?xml version="1.0" encoding="UTF-8"?>
<!DOCTYPE svg PUBLIC "-//W3C//DTD SVG 1.1//EN" "http://www.w3.org/Graphics/SVG/1.1/DTD/svg11.dtd">
<!-- Creator: CorelDRAW X7 -->
<svg xmlns="http://www.w3.org/2000/svg" xml:space="preserve" version="1.1" style="shape-rendering:geometricPrecision; text-rendering:geometricPrecision; image-rendering:optimizeQuality; fill-rule:evenodd; clip-rule:evenodd"
viewBox="0 0 15207 21010"
 xmlns:xlink="http://www.w3.org/1999/xlink">
  <path id="адрес" class="fil0" d="M7603 0c-4200,0 -7603,3403 -7603,7603 0,5214 6807,12818 7097,13180 217,289 651,289 941,72 0,0 72,0 72,-72 290,-290 7097,-7966 7097,-13180 0,-4200 -3404,-7603 -7604,-7603zm0 11441c-2100,0 -3837,-1738 -3837,-3838 0,-2100 1737,-3838 3837,-3838 2100,0 3838,1738 3838,3838 0,2100 -1738,3838 -3838,3838l0 0z"/>
</svg>
