<?xml version="1.0" encoding="UTF-8"?>
<!DOCTYPE svg PUBLIC "-//W3C//DTD SVG 1.1//EN" "http://www.w3.org/Graphics/SVG/1.1/DTD/svg11.dtd">
<!-- Creator: CorelDRAW X7 -->
<svg xmlns="http://www.w3.org/2000/svg" xml:space="preserve" version="1.1" style="shape-rendering:geometricPrecision; text-rendering:geometricPrecision; image-rendering:optimizeQuality; fill-rule:evenodd; clip-rule:evenodd"
viewBox="0 0 29700 20790"
 xmlns:xlink="http://www.w3.org/1999/xlink">
  <path id="почта" class="fil0" d="M11138 11435l-10544 8761c446,297 891,594 1485,594l25394 0c594,0 1039,-148 1485,-594l-10544 -8761 -3564 3118 -3712 -3118zm16483 -11435l-25542 0c-594,0 -1039,149 -1485,594l14256 11880 14256 -11880c-445,-445 -1039,-594 -1485,-594zm-27621 19157l10247 -8613 -10247 -8762 0 17375zm29700 0l0 -17375 -10246 8762 10246 8613z"/>
</svg>
