<?xml version="1.0" encoding="UTF-8"?>
<!DOCTYPE svg PUBLIC "-//W3C//DTD SVG 1.1//EN" "http://www.w3.org/Graphics/SVG/1.1/DTD/svg11.dtd">
<!-- Creator: CorelDRAW X7 -->
<svg xmlns="http://www.w3.org/2000/svg" xml:space="preserve" version="1.1" style="shape-rendering:geometricPrecision; text-rendering:geometricPrecision; image-rendering:optimizeQuality; fill-rule:evenodd; clip-rule:evenodd"
viewBox="0 0 13035 21000"
 xmlns:xlink="http://www.w3.org/1999/xlink">
  <path id="телефон" class="fil0" d="M11369 0l-9703 0c-869,0 -1666,724 -1666,1666 0,0 0,0 0,0l0 17741c0,869 797,1593 1666,1593 0,0 0,0 0,0l9703 0c941,0 1665,-724 1665,-1666l0 -17668c0,-942 -796,-1666 -1665,-1666zm-7241 1014l4779 0c217,145 290,434 145,652 -73,72 -73,72 -145,144l-4779 0c-218,-144 -290,-434 -145,-651 0,-73 72,-145 145,-145l0 0zm2389 18393c-579,0 -1014,-507 -1014,-1086 0,-580 507,-1014 1087,-1014 579,0 1013,507 1013,1014 0,579 -506,1086 -1086,1086l0 0zm5286 -3621l-10572 0 0 -13034 10500 0 0 13034 72 0z"/>
</svg>
