<?xml version="1.0" encoding="UTF-8"?>
<!DOCTYPE svg PUBLIC "-//W3C//DTD SVG 1.1//EN" "http://www.w3.org/Graphics/SVG/1.1/DTD/svg11.dtd">
<!-- Creator: CorelDRAW X7 -->
<svg xmlns="http://www.w3.org/2000/svg" xml:space="preserve" version="1.1" style="shape-rendering:geometricPrecision; text-rendering:geometricPrecision; image-rendering:optimizeQuality; fill-rule:evenodd; clip-rule:evenodd"
viewBox="0 0 4998 4999"
 xmlns:xlink="http://www.w3.org/1999/xlink">
   <path id="_75_2" class="fil0" d="M4854 2506l137 -353c10,-29 10,-59 -9,-78l-236 -295 20 -382c0,-30 -10,-50 -39,-69l-324 -216 -98 -373c-10,-29 -30,-49 -59,-59l-363 -98 -206 -314c-20,-20 -40,-39 -69,-39l-383 19 -294 -235c-30,-10 -59,-10 -89,-10l-353 137 -353 -137c-30,-10 -59,0 -79,10l-294 235 -383 -19c-29,0 -49,10 -68,39l-206 324 -364 98c-29,10 -49,29 -58,59l-99 363 -314 206c-19,20 -39,39 -39,69l20 382 -236 295c-19,19 -19,49 -10,78l138 354 -138 353c-9,29 -9,59 10,78l236 295 -20 382c0,30 10,50 39,69l314 206 99 373c9,30 29,49 58,59l364 98 206 314c19,20 39,39 68,39l383 -19 294 235c20,20 49,20 79,10l353 -137 353 137c10,0 20,0 30,10 19,0 39,-10 49,-20l294 -235 383 19c29,0 49,-9 69,-39l206 -314 363 -98c29,-10 49,-29 59,-59l98 -373 314 -206c20,-19 39,-39 39,-69l-19 -382 235 -295c20,-19 20,-49 10,-78l-118 -344zm-157 30l128 343 -226 285c-10,10 -20,29 -20,49l20 363 -304 196c-20,10 -30,30 -30,49l-98 354 -353 98c-20,10 -30,19 -49,29l-196 304 -363 -19c-20,0 -40,10 -50,19l-284 226 -353 -118c-10,0 -20,-9 -30,-9 -10,0 -19,0 -29,9l-344 128 -284 -226c-20,-10 -30,-19 -49,-19l-363 19 -197 -304c-10,-20 -29,-29 -49,-29l-353 -99 -98 -353c-10,-19 -20,-39 -30,-49l-304 -196 20 -363c0,-20 -10,-39 -20,-49l-226 -285 128 -343c10,-20 10,-40 0,-59l-128 -344 226 -284c10,-10 20,-30 20,-49l-30 -373 305 -196c19,-10 29,-30 29,-50l98 -353 353 -98c20,-10 30,-20 49,-29l197 -305 363 20c19,0 39,-10 49,-20l284 -225 344 127c20,10 39,10 59,0l343 -127 285 225c19,10 29,20 49,20l363 -20 196 305c10,19 30,29 49,29l354 98 98 353c10,20 19,40 29,50l304 196 -19 363c0,19 10,39 19,49l226 285 -108 343c-10,20 -10,39 0,59l0 0zm-736 -1384c-20,-19 -39,-39 -59,-59 -19,-19 -39,-39 -59,-59 -29,-29 -78,-29 -108,0 0,0 0,0 0,0 -29,30 -29,79 0,108 20,20 40,40 59,59 20,20 40,40 59,59 30,30 79,39 108,10 30,-29 39,-79 10,-108 0,0 -10,-10 -10,-10l0 0zm-402 -333c-932,-589 -2169,-314 -2758,618 -471,736 -402,1688 157,2355 20,20 40,29 59,29 20,0 39,-9 49,-19 30,-30 40,-79 10,-108 0,0 0,0 0,0 -657,-785 -549,-1943 226,-2601 618,-520 1491,-579 2178,-147 40,20 89,10 108,-29 20,-30 10,-79 -29,-98l0 0zm618 618c-20,-39 -69,-49 -108,-30 -39,20 -49,69 -29,108 0,0 0,10 9,10 550,864 295,2002 -569,2542 -677,431 -1560,373 -2178,-148 -30,-29 -79,-19 -108,10 -30,30 -20,79 10,108 363,304 814,471 1285,471 30,0 59,0 79,0 1109,-49 1962,-981 1913,-2080 -10,-353 -118,-697 -304,-991l0 0zm-2090 412c-30,39 -69,69 -108,98 -20,-10 -49,-20 -79,-20l-500 0c-88,0 -157,69 -157,167l0 1335c0,88 69,157 157,167l500 0c59,0 118,-30 138,-79l1275 0c138,0 246,-108 246,-245 0,-39 -10,-88 -30,-128 69,-49 118,-127 118,-206 0,-39 -10,-88 -29,-127 117,-69 157,-226 78,-334 0,0 0,-10 -10,-10 128,-88 167,-265 79,-402 -49,-79 -147,-128 -236,-128l-530 0c118,-127 197,-284 226,-451 10,-88 -19,-177 -78,-245 -49,-59 -128,-99 -206,-99l0 0c-79,0 -148,30 -207,79 -58,49 -88,127 -88,206 -19,59 -59,108 -108,147 -88,79 -196,147 -314,177l-137 98zm-20 746c0,-40 -39,-79 -78,-79 -40,0 -79,39 -79,79l0 834c0,0 0,10 0,10 0,0 0,0 0,0l-500 0c0,0 -10,0 -10,0 0,0 0,0 0,0l0 -1355c0,0 0,-9 0,-9 0,0 0,0 0,0l500 0c0,0 10,0 10,0 0,0 0,0 0,0l0 166c0,40 39,79 79,79 39,0 78,-39 78,-79l0 354zm138 -638c29,-30 58,-49 98,-59 147,-49 274,-118 382,-226 79,-59 128,-147 148,-245 0,-39 9,-69 39,-88 29,-20 59,-40 98,-40 39,0 69,20 88,40 30,29 40,78 40,127 -40,196 -157,373 -314,491 -50,10 -59,39 -50,78 10,30 40,49 79,49l726 0c69,0 128,59 128,128 0,69 -59,128 -128,128l-39 0c-39,0 -79,39 -79,78 0,39 40,79 79,79 49,0 88,39 88,88 0,49 -39,88 -88,88l0 0 -88 0c-40,0 -79,30 -89,69 0,39 30,78 69,88 10,0 10,0 20,0 49,0 88,39 88,89 0,49 -39,88 -88,88l0 0 -89 0c-39,0 -78,39 -78,78 0,40 39,79 78,79 49,0 89,39 89,88 0,49 -40,89 -89,89l0 0 -1256 0 0 -756 138 -628zm-550 1138c-39,0 -78,39 -78,79 0,39 39,78 78,78 39,0 79,-39 79,-78 0,-40 -40,-79 -79,-79 0,0 0,0 0,0l0 0z"/>
</svg>
