<?xml version="1.0" encoding="UTF-8"?>
<!DOCTYPE svg PUBLIC "-//W3C//DTD SVG 1.1//EN" "http://www.w3.org/Graphics/SVG/1.1/DTD/svg11.dtd">
<!-- Creator: CorelDRAW X7 -->
<svg xmlns="http://www.w3.org/2000/svg" xml:space="preserve" version="1.1" style="shape-rendering:geometricPrecision; text-rendering:geometricPrecision; image-rendering:optimizeQuality; fill-rule:evenodd; clip-rule:evenodd"
viewBox="0 0 29704 19548"
 xmlns:xlink="http://www.w3.org/1999/xlink">
   <path id="_1_000" class="fil0" d="M20048 3780l-7506 -2592c-702,-216 -1512,-216 -2214,162l-378 162c-540,270 -1134,270 -1674,108l-648 -216c-54,0 -54,-54 -108,-54l-3780 -1350c-108,0 -216,0 -270,54 -108,0 -162,108 -216,162l-3240 9504c-54,216 54,378 216,486l3834 1296c54,0 54,0 108,0 54,0 108,0 162,-54 108,-54 162,-108 162,-216l3186 -9072 378 162c756,270 1512,216 2214,-162l378 -162c486,-270 1080,-270 1620,-108l7236 2484c-54,486 -270,864 -594,1134 -486,270 -1026,270 -1512,54l-3132 -1080c-108,-54 -216,0 -270,0 -108,54 -162,108 -162,216 -324,1080 -972,1944 -1944,2538 -918,486 -2052,540 -3402,54 -162,-54 -378,54 -486,216 0,0 0,0 0,0 -54,216 54,378 216,486 0,0 0,0 0,0 648,216 1350,378 1998,378 702,0 1350,-162 1944,-486 1026,-594 1782,-1512 2160,-2592l2808 972c702,324 1512,270 2160,-108 594,-486 918,-1188 972,-1944 0,-216 -108,-378 -216,-432zm-16038 6912l-3186 -1080 3024 -8802 3078 1026c0,0 54,54 54,54l0 0 -2970 8802zm16092 5130c1566,-756 2970,-1728 4212,-2916l1566 -1458 3618 -1782c162,-108 270,-324 162,-486l-4374 -8910c-54,-108 -108,-162 -216,-162 -108,-54 -216,0 -270,0l-3672 1782c-162,108 -270,324 -162,486l4266 8748 -1404 1296c-1188,1134 -2592,2052 -4050,2754l-7020 3456c-216,108 -432,108 -594,54 -216,-54 -378,-216 -486,-432 -108,-216 -108,-432 -54,-648 54,-216 216,-378 432,-486l3888 -1944c162,-108 270,-324 162,-486 -108,-162 -270,-216 -486,-162l-3834 1890 -1944 972c-378,216 -864,54 -1080,-378 -216,-432 -54,-918 378,-1080l5616 -2754c162,-108 270,-324 162,-486 -108,-162 -270,-270 -486,-162l-4104 2052 -1458 702 -702 324c-378,216 -918,54 -1080,-378 -216,-378 -54,-918 378,-1080l702 -324 5022 -2484c162,-108 270,-324 162,-486 -108,-162 -324,-270 -486,-162l-3240 1566 -1782 864c-216,108 -432,108 -594,54 -216,-54 -378,-216 -486,-432 -108,-216 -108,-432 -54,-648 54,-216 216,-378 432,-486l2646 -1296c162,-108 270,-324 162,-486 -108,-162 -270,-270 -486,-162l-2646 1296c-378,162 -648,486 -810,918 -108,378 -108,810 54,1188 162,270 378,540 648,702 -594,594 -594,1566 0,2214 270,270 702,486 1080,486 54,0 108,0 216,0 -54,324 0,648 108,918 270,540 810,864 1404,864 216,0 486,-54 702,-162l648 -324c-54,270 0,594 162,864 162,378 486,648 864,810 162,54 324,108 486,108 216,0 486,-54 702,-162l7020 -3564 0 0zm5724 -5130l-4050 -8316 3024 -1458 4050 8316 -3024 1458z"/>
</svg>
