<?xml version="1.0" encoding="UTF-8"?>
<!DOCTYPE svg PUBLIC "-//W3C//DTD SVG 1.1//EN" "http://www.w3.org/Graphics/SVG/1.1/DTD/svg11.dtd">
<!-- Creator: CorelDRAW X7 -->
<svg xmlns="http://www.w3.org/2000/svg" xml:space="preserve" version="1.1" style="shape-rendering:geometricPrecision; text-rendering:geometricPrecision; image-rendering:optimizeQuality; fill-rule:evenodd; clip-rule:evenodd"
viewBox="0 0 23559 21056"
 xmlns:xlink="http://www.w3.org/1999/xlink">
  <path id="_15" class="fil0" d="M6242 6599c-178,0 -312,134 -312,312 0,0 0,0 0,0l0 312c0,178 134,312 312,312 178,0 312,-134 312,-312l0 -312c0,-178 -134,-312 -312,-312 45,0 0,0 0,0zm3968 0c-178,0 -312,134 -312,312 0,0 0,0 0,0l0 312c0,178 134,312 312,312 179,0 312,-134 312,-312l0 -312c0,-178 -133,-312 -312,-312 45,0 45,0 0,0l0 0zm-758 2407c-134,-133 -312,-133 -446,0 -445,313 -1070,313 -1560,0 -134,-133 -312,-133 -446,0 -134,134 -134,313 0,446 0,0 0,0 0,0 713,580 1694,580 2408,0 178,-133 178,-356 44,-446 0,0 0,0 0,0l0 0zm-2853 -3388l-669 0c-178,0 -312,134 -312,312 0,0 0,0 0,0 0,178 134,312 312,312 0,0 0,0 0,0l669 0c178,0 312,-134 312,-312 0,0 0,0 0,0 0,-178 -134,-312 -312,-312l0 0zm3968 0l-669 0c-178,0 -312,134 -312,312 0,178 134,312 312,312 0,0 0,0 0,0l669 0c178,0 312,-134 312,-312 0,0 0,0 0,0 0,-178 -134,-312 -312,-312l0 0zm4325 9051l-2230 -669c0,-89 0,-134 0,-223 -44,-223 -178,-357 -356,-490l-1382 -669 0 -981c1070,-713 1738,-1873 1961,-3121l179 0c579,0 1114,-446 1159,-1026 45,-312 -89,-624 -268,-891 -89,-134 -223,-223 -356,-268l0 -3344c0,-1248 -1026,-2274 -2274,-2274l-45 0c-669,-445 -1471,-668 -2274,-668 -1337,-45 -2675,267 -3834,847 -758,312 -1382,535 -2051,758 -89,0 -178,89 -178,133 -45,90 -45,179 0,268 133,268 312,490 490,713 -312,491 -490,1026 -446,1605l0 2007c-579,267 -802,936 -535,1471 179,401 580,669 1026,669l223 0c178,1248 891,2408 1961,3121l0 981 -1382 669c-178,89 -312,267 -356,490 0,89 0,134 0,223l-2230 669c-1025,267 -1694,1159 -1694,2185l0 3834c0,178 134,312 312,312 178,0 312,-134 312,-312l0 -3834c0,-714 491,-1383 1204,-1606l2318 -713 402 535 -446 446c-312,312 -357,758 -178,1115l891 1738 -891 0 0 -356c0,-179 -134,-312 -313,-312 -178,0 -312,133 -312,312l0 356 -1337 0c-179,0 -312,134 -312,313 0,0 0,0 0,0l0 1961c0,179 133,312 312,312l3299 0c178,0 312,-133 312,-312l0 -668 402 802c44,89 178,178 267,178 178,0 312,-133 312,-312 0,-44 0,-89 -44,-133l-2096 -4147c-89,-134 -45,-312 45,-401l668 -624c90,-90 134,-268 45,-402l-713 -936c0,-45 -45,-45 0,-89 0,-45 44,-45 44,-45l1204 -624 847 2943c45,178 223,267 401,223 179,-45 268,-223 223,-402l-133 -445c758,267 1605,267 2363,0l-1204 4057 -624 -2274c-45,-178 -223,-268 -402,-223 -178,45 -267,223 -223,401l981 3300c45,178 223,267 402,223 89,-45 178,-90 223,-223l2229 -7535 1204 624c44,0 44,44 44,44 0,45 0,45 0,90l-713 936c-89,134 -89,312 44,401l669 624c89,90 134,268 45,402l-2096 4146c-89,134 0,357 134,401 45,0 89,45 134,45 134,0 223,-45 267,-178l2096 -4191c178,-357 134,-803 -178,-1115l-446 -446 401 -535 2318 713c714,223 1204,848 1204,1606l0 3834c0,178 134,312 312,312 179,0 312,-134 312,-312l0 -3834c-44,-1026 -713,-1918 -1649,-2185l0 0zm-9943 5707l-2675 0 0 -1338 1025 0 0 45c0,178 134,312 312,312 179,0 313,-134 313,-312l0 -45 1025 0 0 1338 0 0 0 0zm357 -18905c1114,-579 2363,-847 3611,-802 1159,0 2140,490 2363,1114 45,179 223,268 402,179 178,-45 267,-223 178,-401 0,0 0,0 0,0 0,-45 -45,-90 -45,-134 669,223 1115,847 1115,1560l0 3300 -357 0c-178,0 -356,-134 -356,-357l0 -312c-45,-936 -446,-1828 -1070,-2497 -90,-89 -223,-89 -313,-89 -1738,490 -4191,981 -5974,89 -491,-223 -892,-580 -1204,-981 580,-223 1115,-446 1650,-669l0 0zm4949 11281l-580 2006c-892,490 -1962,490 -2809,0l-624 -2006 0 -758c1248,624 2764,624 4013,0l0 758zm-2007 -892c-2184,0 -3968,-1784 -4012,-3968 0,-179 -134,-312 -312,-312 -179,0 -313,133 -313,312l0 44 -178 0c-134,0 -267,-44 -401,-178 -89,-89 -134,-267 -134,-401 45,-268 268,-491 580,-446l446 0c535,0 980,-446 980,-981l0 -1159c0,-179 -133,-312 -312,-312 -178,0 -312,133 -312,312l0 1159c0,178 -178,357 -356,357l-313 0 0 -1918c-44,-401 45,-802 268,-1159 223,179 446,312 669,446 758,401 1605,580 2497,580 1293,0 2541,-179 3745,-580 490,535 758,1249 802,1962l0 312c0,535 446,981 981,981l491 0c267,0 535,223 535,535 0,0 0,45 0,45 -45,267 -268,490 -580,445l-134 0 0 0c0,-178 -133,-312 -312,-312l0 0c-178,0 -312,134 -312,312 -44,2140 -1828,3924 -4013,3924zm6287 6732l-535 0 0 -535c0,-178 -134,-312 -312,-312 -178,0 -312,134 -312,312l0 535 -535 0c-179,0 -312,134 -312,313 0,178 133,312 312,312l535 0 0 535c0,178 134,312 312,312 178,0 312,-134 312,-312l0 -580 535 0c178,0 312,-134 312,-312 0,-134 -134,-268 -312,-268zm8917 -11592c-44,-45 -89,-89 -134,-134l0 0 -579 -401 312 -669c134,-267 0,-579 -268,-669 0,0 0,0 0,0 -44,-44 -133,-44 -178,-44l-713 -45 -45 -713c-44,-268 -267,-491 -579,-491 -45,0 -134,0 -179,45l-669 312 -356 -579c-179,-223 -491,-313 -714,-134 -89,44 -133,89 -178,134l-401 579 -669 -312c-268,-134 -580,0 -713,268 0,0 0,0 0,0 0,44 0,89 0,178l-45 713 -713 45c-268,44 -491,267 -491,579 0,45 0,134 45,179l312 669 -580 401c-223,178 -312,490 -134,713 0,0 0,0 0,0 45,45 90,89 134,134l580 401 -312 669c-134,268 0,580 267,669 0,0 0,0 0,0 45,44 134,44 179,44l713 45 45 713c0,179 133,313 267,402l0 3344c0,133 134,267 268,267 0,0 0,0 0,0 89,0 133,-44 178,-89l1471 -1471 1472 1471c89,89 267,89 401,0 44,-45 89,-134 89,-178l0 -3344c134,-89 223,-223 268,-402l44 -713 714 -45c267,-44 490,-267 490,-579 0,-45 0,-134 -45,-178l-267 -625 579 -401c268,-178 313,-490 134,-758 0,0 0,0 0,0l0 0zm-2407 6376l-1204 -1204c-89,-89 -268,-89 -401,0l-1249 1204 0 -2675 580 -268 401 580c178,223 490,312 713,134 45,-45 90,-90 134,-134l401 -580 580 268 0 2675 45 0zm1337 -5663c-223,134 -267,402 -178,625l312 624 -669 89c-267,0 -446,223 -490,490l-45 714 -624 -312c-223,-89 -491,-45 -624,178l-446 535 -401 -580c-134,-222 -402,-267 -625,-178l-624 312 -44 -713c-45,-268 -223,-446 -491,-491l-669 -44 312 -624c90,-223 45,-491 -178,-625l-580 -401 580 -401c223,-134 268,-401 178,-624l-312 -625 669 -44c268,-45 446,-223 491,-491l44 -713 624 312c223,89 491,45 625,-178l401 -580 401 580c134,223 401,267 624,178l625 -312 44 713c45,268 223,446 491,491l668 44 -312 625c-89,223 -44,490 179,624l579 401 -535 401zm-2764 -2942c-1382,0 -2542,1114 -2542,2541 0,1427 1115,2542 2542,2542 1427,0 2541,-1115 2541,-2542 0,0 0,0 0,0 0,-1382 -1159,-2541 -2541,-2541zm0 4503c-1070,0 -1962,-892 -1962,-1962 0,-1070 892,-1962 1962,-1962 1070,0 1962,892 1962,1962 0,1070 -892,1962 -1962,1962 0,0 0,0 0,0zm1694 -7312l580 0 0 579 -580 0 0 -579zm1115 0l579 0 0 579 -579 0 0 -579zm-535 -580l579 0 0 580 -579 0 0 -580zm0 1159l579 0 0 580 -579 0 0 -580zm-3701 -2006l580 0 0 580 -580 0 0 -580zm1159 0l580 0 0 580 -580 0 0 -580zm-579 -535l579 0 0 580 -579 0 0 -580zm0 1115l579 0 0 579 -579 0 0 -579z"/>
</svg>
