<?xml version="1.0" encoding="UTF-8"?>
<!DOCTYPE svg PUBLIC "-//W3C//DTD SVG 1.1//EN" "http://www.w3.org/Graphics/SVG/1.1/DTD/svg11.dtd">
<!-- Creator: CorelDRAW X7 -->
<svg xmlns="http://www.w3.org/2000/svg" xml:space="preserve" width="95.779mm" height="57.68mm" version="1.1" style="shape-rendering:geometricPrecision; text-rendering:geometricPrecision; image-rendering:optimizeQuality; fill-rule:evenodd; clip-rule:evenodd"
viewBox="0 0 9578 5768"
 xmlns:xlink="http://www.w3.org/1999/xlink">
 <defs>
  <style type="text/css">
   <![CDATA[
    .fil0 {fill:white;fill-opacity:0.070588}
   ]]>
  </style>
 </defs>
 <g id="Слой_x0020_1">
  <metadata id="CorelCorpID_0Corel-Layer"/>
  <path id="Shape_1_copy_21" class="fil0" d="M1147 47c0,0 157,-28 157,43 0,72 -55,72 -100,72 -46,0 -235,-115 -373,-115 -137,0 -143,141 -143,188 0,47 38,491 201,491 162,0 109,-231 129,-231 19,0 17,246 129,246 111,0 157,-195 157,-318 0,-123 -2,-145 -14,-145 -12,0 -42,391 -143,391 -59,0 19,-261 -129,-261 -131,0 -44,246 -129,246 -62,0 -129,-332 -129,-390 0,-59 5,-145 86,-145 66,0 224,116 358,116 134,0 172,-96 172,-145 0,-48 -87,-149 -229,-43zm1481 0c0,0 158,-28 158,43 0,72 -55,72 -100,72 -46,0 -236,-115 -373,-115 -138,0 -143,141 -143,188 0,47 38,491 200,491 163,0 109,-231 129,-231 20,0 18,246 129,246 112,0 158,-195 158,-318 0,-123 -2,-145 -14,-145 -13,0 -43,391 -144,391 -58,0 19,-261 -129,-261 -130,0 -43,246 -129,246 -62,0 -129,-332 -129,-390 0,-59 6,-145 86,-145 67,0 224,116 359,116 134,0 172,-96 172,-145 0,-48 -87,-149 -230,-43zm1482 0c0,0 157,-28 157,43 0,72 -54,72 -100,72 -45,0 -235,-115 -372,-115 -138,0 -144,141 -144,188 0,47 38,491 201,491 162,0 109,-231 129,-231 20,0 17,246 129,246 111,0 157,-195 157,-318 0,-123 -2,-145 -14,-145 -12,0 -42,391 -143,391 -58,0 19,-261 -129,-261 -131,0 -44,246 -129,246 -62,0 -129,-332 -129,-390 0,-59 5,-145 86,-145 67,0 224,116 358,116 134,0 172,-96 172,-145 0,-48 -87,-149 -229,-43zm-2963 2540c0,0 157,-28 157,43 0,72 -55,72 -100,72 -46,0 -235,-115 -373,-115 -137,0 -143,141 -143,188 0,47 38,491 201,491 162,0 109,-231 129,-231 19,0 17,246 129,246 111,0 157,-195 157,-318 0,-123 -2,-145 -14,-145 -12,0 -42,391 -143,391 -59,0 19,-261 -129,-261 -131,0 -44,246 -129,246 -62,0 -129,-332 -129,-390 0,-59 5,-145 86,-145 66,0 224,116 358,116 134,0 172,-96 172,-145 0,-48 -87,-149 -229,-43zm1481 0c0,0 158,-28 158,43 0,72 -55,72 -100,72 -46,0 -236,-115 -373,-115 -138,0 -143,141 -143,188 0,47 38,491 200,491 163,0 109,-231 129,-231 20,0 18,246 129,246 112,0 158,-195 158,-318 0,-123 -2,-145 -14,-145 -13,0 -43,391 -144,391 -58,0 19,-261 -129,-261 -130,0 -43,246 -129,246 -62,0 -129,-332 -129,-390 0,-59 6,-145 86,-145 67,0 224,116 359,116 134,0 172,-96 172,-145 0,-48 -87,-149 -230,-43zm1482 0c0,0 157,-28 157,43 0,72 -54,72 -100,72 -45,0 -235,-115 -372,-115 -138,0 -144,141 -144,188 0,47 38,491 201,491 162,0 109,-231 129,-231 20,0 17,246 129,246 111,0 157,-195 157,-318 0,-123 -2,-145 -14,-145 -12,0 -42,391 -143,391 -58,0 19,-261 -129,-261 -131,0 -44,246 -129,246 -62,0 -129,-332 -129,-390 0,-59 5,-145 86,-145 67,0 224,116 358,116 134,0 172,-96 172,-145 0,-48 -87,-149 -229,-43zm-2963 2487c0,0 157,-28 157,43 0,72 -55,73 -100,73 -46,0 -235,-116 -373,-116 -137,0 -143,141 -143,188 0,47 38,491 201,491 162,0 109,-231 129,-231 19,0 17,246 129,246 111,0 157,-195 157,-318 0,-123 -2,-145 -14,-145 -12,0 -42,391 -143,391 -59,0 19,-261 -129,-261 -131,0 -44,246 -129,246 -62,0 -129,-332 -129,-390 0,-59 5,-145 86,-145 66,0 224,116 358,116 134,0 172,-96 172,-145 0,-48 -87,-149 -229,-43zm1481 0c0,0 158,-28 158,43 0,72 -55,73 -100,73 -46,0 -236,-116 -373,-116 -138,0 -143,141 -143,188 0,47 38,491 200,491 163,0 109,-231 129,-231 20,0 18,246 129,246 112,0 158,-195 158,-318 0,-123 -2,-145 -14,-145 -13,0 -43,391 -144,391 -58,0 19,-261 -129,-261 -130,0 -43,246 -129,246 -62,0 -129,-332 -129,-390 0,-59 6,-145 86,-145 67,0 224,116 359,116 134,0 172,-96 172,-145 0,-48 -87,-149 -230,-43zm1482 0c0,0 157,-28 157,43 0,72 -54,73 -100,73 -45,0 -235,-116 -372,-116 -138,0 -144,141 -144,188 0,47 38,491 201,491 162,0 109,-231 129,-231 20,0 17,246 129,246 111,0 157,-195 157,-318 0,-123 -2,-145 -14,-145 -12,0 -42,391 -143,391 -58,0 19,-261 -129,-261 -131,0 -44,246 -129,246 -62,0 -129,-332 -129,-390 0,-59 5,-145 86,-145 67,0 224,116 358,116 134,0 172,-96 172,-145 0,-48 -87,-149 -229,-43zm-3651 -3757c0,0 157,-28 157,43 0,72 -55,72 -100,72 -45,0 -235,-115 -373,-115 -137,0 -143,141 -143,188 0,47 38,491 201,491 162,0 109,-231 129,-231 19,0 17,246 129,246 111,0 157,-195 157,-318 0,-123 -2,-145 -14,-145 -12,0 -42,391 -143,391 -59,0 19,-261 -129,-261 -131,0 -44,246 -129,246 -62,0 -129,-332 -129,-390 0,-59 5,-145 86,-145 67,0 224,116 358,116 134,0 172,-96 172,-145 0,-48 -87,-149 -229,-43zm1481 0c0,0 158,-28 158,43 0,72 -55,72 -100,72 -46,0 -236,-115 -373,-115 -138,0 -143,141 -143,188 0,47 38,491 200,491 163,0 109,-231 129,-231 20,0 18,246 129,246 112,0 158,-195 158,-318 0,-123 -2,-145 -14,-145 -13,0 -42,391 -144,391 -58,0 19,-261 -129,-261 -130,0 -43,246 -129,246 -62,0 -129,-332 -129,-390 0,-59 6,-145 86,-145 67,0 224,116 359,116 134,0 172,-96 172,-145 0,-48 -87,-149 -230,-43zm1482 0c0,0 158,-28 158,43 0,72 -55,72 -101,72 -45,0 -235,-115 -372,-115 -138,0 -144,141 -144,188 0,47 38,491 201,491 162,0 109,-231 129,-231 20,0 17,246 129,246 111,0 158,-195 158,-318 0,-123 -2,-145 -15,-145 -12,0 -42,391 -143,391 -58,0 19,-261 -129,-261 -131,0 -44,246 -129,246 -62,0 -129,-332 -129,-390 0,-59 5,-145 86,-145 67,0 224,116 358,116 135,0 172,-96 172,-145 0,-48 -87,-149 -229,-43zm1482 0c0,0 157,-28 157,43 0,72 -55,72 -100,72 -45,0 -235,-115 -373,-115 -137,0 -143,141 -143,188 0,47 38,491 201,491 162,0 109,-231 129,-231 19,0 17,246 129,246 111,0 157,-195 157,-318 0,-123 -2,-145 -14,-145 -12,0 -42,391 -143,391 -59,0 19,-261 -129,-261 -131,0 -44,246 -129,246 -62,0 -129,-332 -129,-390 0,-59 5,-145 86,-145 67,0 224,116 358,116 134,0 172,-96 172,-145 0,-48 -87,-149 -229,-43zm-4445 2540c0,0 157,-28 157,43 0,72 -55,72 -100,72 -45,0 -235,-115 -373,-115 -137,0 -143,141 -143,188 0,47 38,491 201,491 162,0 109,-231 129,-231 19,0 17,246 129,246 111,0 157,-195 157,-318 0,-123 -2,-145 -14,-145 -12,0 -42,391 -143,391 -59,0 19,-261 -129,-261 -131,0 -44,246 -129,246 -62,0 -129,-332 -129,-390 0,-59 5,-145 86,-145 67,0 224,116 358,116 134,0 172,-96 172,-145 0,-48 -87,-149 -229,-43zm1481 0c0,0 158,-28 158,43 0,72 -55,72 -100,72 -46,0 -236,-115 -373,-115 -138,0 -143,141 -143,188 0,47 38,491 200,491 163,0 109,-231 129,-231 20,0 18,246 129,246 112,0 158,-195 158,-318 0,-123 -2,-145 -14,-145 -13,0 -42,391 -144,391 -58,0 19,-261 -129,-261 -130,0 -43,246 -129,246 -62,0 -129,-332 -129,-390 0,-59 6,-145 86,-145 67,0 224,116 359,116 134,0 172,-96 172,-145 0,-48 -87,-149 -230,-43zm1482 0c0,0 158,-28 158,43 0,72 -55,72 -101,72 -45,0 -235,-115 -372,-115 -138,0 -144,141 -144,188 0,47 38,491 201,491 162,0 109,-231 129,-231 20,0 17,246 129,246 111,0 158,-195 158,-318 0,-123 -2,-145 -15,-145 -12,0 -42,391 -143,391 -58,0 19,-261 -129,-261 -131,0 -44,246 -129,246 -62,0 -129,-332 -129,-390 0,-59 5,-145 86,-145 67,0 224,116 358,116 135,0 172,-96 172,-145 0,-48 -87,-149 -229,-43zm1482 0c0,0 157,-28 157,43 0,72 -55,72 -100,72 -45,0 -235,-115 -373,-115 -137,0 -143,141 -143,188 0,47 38,491 201,491 162,0 109,-231 129,-231 19,0 17,246 129,246 111,0 157,-195 157,-318 0,-123 -2,-145 -14,-145 -12,0 -42,391 -143,391 -59,0 19,-261 -129,-261 -131,0 -44,246 -129,246 -62,0 -129,-332 -129,-390 0,-59 5,-145 86,-145 67,0 224,116 358,116 134,0 172,-96 172,-145 0,-48 -87,-149 -229,-43zm688 -3810c0,0 157,-28 157,43 0,72 -55,72 -100,72 -46,0 -235,-115 -373,-115 -137,0 -143,141 -143,188 0,47 38,491 201,491 162,0 109,-231 129,-231 19,0 17,246 129,246 111,0 157,-195 157,-318 0,-123 -2,-145 -14,-145 -12,0 -42,391 -143,391 -59,0 19,-261 -129,-261 -131,0 -44,246 -129,246 -62,0 -129,-332 -129,-390 0,-59 5,-145 86,-145 66,0 224,116 358,116 134,0 172,-96 172,-145 0,-48 -87,-149 -229,-43zm1481 0c0,0 158,-28 158,43 0,72 -55,72 -100,72 -46,0 -236,-115 -373,-115 -138,0 -143,141 -143,188 0,47 38,491 200,491 163,0 109,-231 129,-231 20,0 18,246 129,246 112,0 158,-195 158,-318 0,-123 -2,-145 -14,-145 -13,0 -43,391 -144,391 -58,0 19,-261 -129,-261 -130,0 -43,246 -129,246 -62,0 -129,-332 -129,-390 0,-59 6,-145 86,-145 67,0 224,116 359,116 134,0 172,-96 172,-145 0,-48 -87,-149 -230,-43zm1482 0c0,0 157,-28 157,43 0,72 -54,72 -100,72 -45,0 -235,-115 -372,-115 -138,0 -144,141 -144,188 0,47 38,491 201,491 162,0 109,-231 129,-231 20,0 17,246 129,246 111,0 157,-195 157,-318 0,-123 -2,-145 -14,-145 -12,0 -42,391 -143,391 -58,0 19,-261 -129,-261 -131,0 -44,246 -129,246 -62,0 -129,-332 -129,-390 0,-59 5,-145 86,-145 67,0 224,116 358,116 134,0 172,-96 172,-145 0,-48 -87,-149 -229,-43zm-2963 2540c0,0 157,-28 157,43 0,72 -55,72 -100,72 -46,0 -235,-115 -373,-115 -137,0 -143,141 -143,188 0,47 38,491 201,491 162,0 109,-231 129,-231 19,0 17,246 129,246 111,0 157,-195 157,-318 0,-123 -2,-145 -14,-145 -12,0 -42,391 -143,391 -59,0 19,-261 -129,-261 -131,0 -44,246 -129,246 -62,0 -129,-332 -129,-390 0,-59 5,-145 86,-145 66,0 224,116 358,116 134,0 172,-96 172,-145 0,-48 -87,-149 -229,-43zm1481 0c0,0 158,-28 158,43 0,72 -55,72 -100,72 -46,0 -236,-115 -373,-115 -138,0 -143,141 -143,188 0,47 38,491 200,491 163,0 109,-231 129,-231 20,0 18,246 129,246 112,0 158,-195 158,-318 0,-123 -2,-145 -14,-145 -13,0 -43,391 -144,391 -58,0 19,-261 -129,-261 -130,0 -43,246 -129,246 -62,0 -129,-332 -129,-390 0,-59 6,-145 86,-145 67,0 224,116 359,116 134,0 172,-96 172,-145 0,-48 -87,-149 -230,-43zm1482 0c0,0 157,-28 157,43 0,72 -54,72 -100,72 -45,0 -235,-115 -372,-115 -138,0 -144,141 -144,188 0,47 38,491 201,491 162,0 109,-231 129,-231 20,0 17,246 129,246 111,0 157,-195 157,-318 0,-123 -2,-145 -14,-145 -12,0 -42,391 -143,391 -58,0 19,-261 -129,-261 -131,0 -44,246 -129,246 -62,0 -129,-332 -129,-390 0,-59 5,-145 86,-145 67,0 224,116 358,116 134,0 172,-96 172,-145 0,-48 -87,-149 -229,-43zm-2963 2487c0,0 157,-28 157,43 0,72 -55,73 -100,73 -46,0 -235,-116 -373,-116 -137,0 -143,141 -143,188 0,47 38,491 201,491 162,0 109,-231 129,-231 19,0 17,246 129,246 111,0 157,-195 157,-318 0,-123 -2,-145 -14,-145 -12,0 -42,391 -143,391 -59,0 19,-261 -129,-261 -131,0 -44,246 -129,246 -62,0 -129,-332 -129,-390 0,-59 5,-145 86,-145 66,0 224,116 358,116 134,0 172,-96 172,-145 0,-48 -87,-149 -229,-43zm1481 0c0,0 158,-28 158,43 0,72 -55,73 -100,73 -46,0 -236,-116 -373,-116 -138,0 -143,141 -143,188 0,47 38,491 200,491 163,0 109,-231 129,-231 20,0 18,246 129,246 112,0 158,-195 158,-318 0,-123 -2,-145 -14,-145 -13,0 -43,391 -144,391 -58,0 19,-261 -129,-261 -130,0 -43,246 -129,246 -62,0 -129,-332 -129,-390 0,-59 6,-145 86,-145 67,0 224,116 359,116 134,0 172,-96 172,-145 0,-48 -87,-149 -230,-43zm1482 0c0,0 157,-28 157,43 0,72 -54,73 -100,73 -45,0 -235,-116 -372,-116 -138,0 -144,141 -144,188 0,47 38,491 201,491 162,0 109,-231 129,-231 20,0 17,246 129,246 111,0 157,-195 157,-318 0,-123 -2,-145 -14,-145 -12,0 -42,391 -143,391 -58,0 19,-261 -129,-261 -131,0 -44,246 -129,246 -62,0 -129,-332 -129,-390 0,-59 5,-145 86,-145 67,0 224,116 358,116 134,0 172,-96 172,-145 0,-48 -87,-149 -229,-43zm-2170 -3757c0,0 158,-28 158,43 0,72 -55,72 -100,72 -46,0 -236,-115 -373,-115 -138,0 -143,141 -143,188 0,47 38,491 200,491 163,0 109,-231 129,-231 20,0 18,246 129,246 112,0 158,-195 158,-318 0,-123 -2,-145 -14,-145 -13,0 -42,391 -144,391 -58,0 19,-261 -129,-261 -130,0 -43,246 -129,246 -62,0 -129,-332 -129,-390 0,-59 6,-145 86,-145 67,0 224,116 359,116 134,0 172,-96 172,-145 0,-48 -87,-149 -230,-43zm1482 0c0,0 158,-28 158,43 0,72 -55,72 -101,72 -45,0 -235,-115 -372,-115 -138,0 -144,141 -144,188 0,47 38,491 201,491 162,0 109,-231 129,-231 20,0 17,246 129,246 111,0 158,-195 158,-318 0,-123 -2,-145 -15,-145 -12,0 -42,391 -143,391 -58,0 19,-261 -129,-261 -131,0 -44,246 -129,246 -62,0 -129,-332 -129,-390 0,-59 5,-145 86,-145 67,0 224,116 358,116 135,0 172,-96 172,-145 0,-48 -87,-149 -229,-43zm1482 0c0,0 157,-28 157,43 0,72 -55,72 -100,72 -45,0 -235,-115 -373,-115 -137,0 -143,141 -143,188 0,47 38,491 201,491 162,0 109,-231 129,-231 19,0 17,246 129,246 111,0 157,-195 157,-318 0,-123 -2,-145 -14,-145 -12,0 -42,391 -143,391 -59,0 19,-261 -129,-261 -131,0 -44,246 -129,246 -62,0 -129,-332 -129,-390 0,-59 5,-145 86,-145 67,0 224,116 358,116 134,0 172,-96 172,-145 0,-48 -87,-149 -229,-43zm-2964 2540c0,0 158,-28 158,43 0,72 -55,72 -100,72 -46,0 -236,-115 -373,-115 -138,0 -143,141 -143,188 0,47 38,491 200,491 163,0 109,-231 129,-231 20,0 18,246 129,246 112,0 158,-195 158,-318 0,-123 -2,-145 -14,-145 -13,0 -42,391 -144,391 -58,0 19,-261 -129,-261 -130,0 -43,246 -129,246 -62,0 -129,-332 -129,-390 0,-59 6,-145 86,-145 67,0 224,116 359,116 134,0 172,-96 172,-145 0,-48 -87,-149 -230,-43zm1482 0c0,0 158,-28 158,43 0,72 -55,72 -101,72 -45,0 -235,-115 -372,-115 -138,0 -144,141 -144,188 0,47 38,491 201,491 162,0 109,-231 129,-231 20,0 17,246 129,246 111,0 158,-195 158,-318 0,-123 -2,-145 -15,-145 -12,0 -42,391 -143,391 -58,0 19,-261 -129,-261 -131,0 -44,246 -129,246 -62,0 -129,-332 -129,-390 0,-59 5,-145 86,-145 67,0 224,116 358,116 135,0 172,-96 172,-145 0,-48 -87,-149 -229,-43zm1482 0c0,0 157,-28 157,43 0,72 -55,72 -100,72 -45,0 -235,-115 -373,-115 -137,0 -143,141 -143,188 0,47 38,491 201,491 162,0 109,-231 129,-231 19,0 17,246 129,246 111,0 157,-195 157,-318 0,-123 -2,-145 -14,-145 -12,0 -42,391 -143,391 -59,0 19,-261 -129,-261 -131,0 -44,246 -129,246 -62,0 -129,-332 -129,-390 0,-59 5,-145 86,-145 67,0 224,116 358,116 134,0 172,-96 172,-145 0,-48 -87,-149 -229,-43z" data-name="Shape 1 copy 21"/>
 </g>
</svg>
