<?xml version="1.0" encoding="UTF-8"?>
<!DOCTYPE svg PUBLIC "-//W3C//DTD SVG 1.1//EN" "http://www.w3.org/Graphics/SVG/1.1/DTD/svg11.dtd">
<!-- Creator: CorelDRAW X7 -->
<svg xmlns="http://www.w3.org/2000/svg" xml:space="preserve" width="209.98mm" height="31.277mm" version="1.1" style="shape-rendering:geometricPrecision; text-rendering:geometricPrecision; image-rendering:optimizeQuality; fill-rule:evenodd; clip-rule:evenodd"
viewBox="0 0 20998 3128"
 xmlns:xlink="http://www.w3.org/1999/xlink">
 <defs>
  <style type="text/css">
   <![CDATA[
    .fil0 {fill:black}
   ]]>
  </style>
 </defs>
 <g id="Слой_x0020_1">
  <metadata id="CorelCorpID_0Corel-Layer"/>
  <path id="разделитель" class="fil0" d="M17887 1788l-17887 0 0 -447 17887 0c112,-748 774,-1341 1547,-1341 849,0 1564,715 1564,1564 0,849 -715,1564 -1564,1564 -773,0 -1435,-593 -1547,-1340zm385 -224c0,626 537,1162 1162,1162 626,0 1162,-536 1162,-1162 0,-625 -536,-1162 -1162,-1162 -670,0 -1162,492 -1162,1162z"/>
 </g>
</svg>
