<svg xmlns="http://www.w3.org/2000/svg" xmlns:xlink="http://www.w3.org/1999/xlink">
	<defs>
		<style>
			.fb {
				fill:#000000;
				fill-rule:nonzero
			}
			.inst {
				fill:#000000;
				fill-rule:nonzero
			}
			.vk {
				fill:#000000;
				fill-rule:nonzero
			}
		</style>
	</defs>
	
	
	
	<symbol id="socials-fb" viewBox="0 0 236 570">
		<path class="fb" d="M51 110l0 79 -51 0 0 96 51 0 0 285 105 0 0 -285 70 0c0,0 6,-46 10,-96l-80 0 0 -66c1,-12 11,-21 23,-23l57 0 0 -100 -78 0c-55,-4 -103,36 -107,91 -1,6 -1,13 0,19z"/>
	</symbol>
	<symbol id="socials-inst" viewBox="0 0 564 564">
		<path class="inst" d="M508 0l-452 0c-31,0 -56,25 -56,56l0 452c0,31 25,56 56,56l452 0c31,0 56,-25 56,-56l0 -452c0,-31 -25,-56 -56,-56zm-226 169l0 0c63,0 113,51 113,113 0,63 -50,113 -113,113 -62,0 -113,-50 -113,-113 0,-62 51,-113 113,-113zm-211 339l0 0c-8,0 -14,-5 -15,-13 0,0 0,-1 0,-1l0 -240 60 0c-3,9 -4,19 -3,28 0,94 76,169 170,169 93,0 168,-76 169,-169 0,-9 -1,-19 -3,-28l59 0 0 240c0,7 -5,14 -13,14 0,0 -1,0 -1,0l-423 0zm437 -381l0 0c0,7 -5,14 -13,14 0,0 -1,0 -1,0l-57 0c-7,1 -13,-5 -14,-12 0,-1 0,-1 0,-2l0 -56c0,-8 5,-14 13,-15 0,0 1,0 1,0l57 0c7,0 14,6 14,13 0,0 0,1 0,2l0 56z"/>
	</symbol>
	<symbol id="socials-vk" viewBox="0 0 792 448">
		<path class="vk" d="M788 405c-1,-2 -2,-4 -3,-5 -22,-34 -48,-65 -79,-91l-1 0 0 -1 0 0 -1 0c-17,-17 -28,-28 -33,-34 -8,-9 -11,-21 -6,-33 11,-19 23,-37 37,-53 11,-14 20,-26 27,-35 48,-62 68,-102 62,-120l-3 -4c-3,-3 -7,-6 -12,-6 -9,-3 -18,-3 -27,-1l-119 0c-2,-1 -5,0 -8,1l-5 1 -2 1 -2 1c-2,1 -3,3 -4,4 -2,2 -4,5 -5,7 -12,32 -27,63 -44,92 -10,17 -19,32 -28,44 -6,10 -13,19 -21,27 -5,5 -10,10 -16,14 -3,3 -6,5 -10,5 -3,-1 -5,-1 -7,-2 -4,-2 -8,-6 -10,-10 -2,-5 -4,-10 -4,-16 -1,-6 -2,-11 -2,-16 0,-5 0,-11 0,-20 0,-8 1,-14 1,-17 0,-10 0,-22 0,-34 1,-12 1,-21 1,-28 1,-7 1,-15 1,-23 0,-6 -1,-12 -2,-18 -1,-5 -2,-9 -4,-14 -2,-4 -5,-7 -8,-9 -5,-3 -9,-5 -14,-6 -19,-3 -37,-5 -56,-5 -33,-3 -67,1 -99,10 -5,3 -11,7 -15,12 -5,6 -6,9 -2,10 13,1 26,7 35,17l2 5c3,6 5,13 6,19 2,10 3,20 4,30 1,17 1,34 0,51 -2,14 -3,25 -4,33 -1,7 -3,13 -6,19 -1,3 -3,6 -5,9 0,1 -1,1 -2,2 -3,1 -7,2 -11,2 -5,0 -10,-2 -14,-6 -6,-4 -12,-10 -17,-15 -7,-9 -14,-18 -20,-28 -7,-12 -15,-26 -23,-43l-7 -12c-4,-7 -10,-18 -17,-33 -7,-14 -13,-28 -19,-42 -2,-5 -5,-10 -10,-13l-2 -1c-2,-2 -4,-3 -6,-4 -3,-1 -6,-2 -10,-3l-113 1c-8,-1 -17,2 -23,8l-2 3c-1,2 -1,4 -1,6 0,4 1,8 3,11 16,38 34,75 53,111 20,36 37,64 51,86 14,22 29,42 44,62 14,19 24,31 29,37 5,6 9,9 11,12l11 10c9,8 18,16 29,23 13,9 27,18 42,27 17,10 35,17 54,22 20,5 40,7 61,6l47 0c8,0 16,-3 22,-8l2 -2c1,-3 2,-5 3,-8 1,-4 1,-7 1,-11 0,-11 1,-21 3,-32 1,-7 4,-14 7,-21 2,-4 5,-9 9,-12 2,-2 4,-4 7,-6 1,-1 2,-1 3,-1 8,-2 17,0 23,6 10,7 18,15 25,24 8,9 18,20 29,31 8,10 18,19 29,26l8 5c7,4 14,7 21,9 8,3 16,4 23,2l106 -2c8,1 17,-1 24,-4 5,-3 9,-7 11,-12 1,-4 1,-9 0,-14 -1,-3 -2,-7 -3,-10z"/>
	</symbol>
</svg>