<?xml version="1.0" encoding="UTF-8"?>
<!DOCTYPE svg PUBLIC "-//W3C//DTD SVG 1.1//EN" "http://www.w3.org/Graphics/SVG/1.1/DTD/svg11.dtd">
<!-- Creator: CorelDRAW X7 -->
<svg xmlns="http://www.w3.org/2000/svg" xml:space="preserve" version="1.1" style="shape-rendering:geometricPrecision; text-rendering:geometricPrecision; image-rendering:optimizeQuality; fill-rule:evenodd; clip-rule:evenodd"
viewBox="0 0 24481 4160"
 xmlns:xlink="http://www.w3.org/1999/xlink">
 <defs>
  <style type="text/css">
   <![CDATA[
    .fil3 {fill:#FEFEFE}
    .fil0 {fill:#FFDCC6}
    .fil1 {fill:#FFC9B4;fill-rule:nonzero}
    .fil2 {fill:#FF301C;fill-opacity:0.149020}
   ]]>
  </style>
 </defs>
 <g id="Слой_x0020_1">
  <g id="_989892593472">
   <path class="fil0" d="M24481 2112c-7592,1818 -15752,1114 -24481,-2112 1613,810 11563,5453 24481,3811l0 -1699z"/>
   <path class="fil1" d="M18273 3279l0 178 -140 0 0 -178 -176 0 0 -134 176 0 0 -108 140 -8 0 116 164 0 0 134 -164 0zm-5227 491l0 143 -112 0 0 -143 -141 0 0 -107 141 0 0 -148 112 0 0 148 131 0 0 107 -131 0zm-5827 -1352l0 143 -112 0 0 -143 -141 0 0 -107 141 0 0 -148 112 0 0 148 131 0 0 107 -131 0zm16333 557l0 208 -163 0 0 -208 -203 0 0 -155 203 0 0 -214 163 0 0 214 190 0 0 155 -190 0z"/>
   <path id="Shape_1_copy_2" class="fil2" d="M20949 3420c0,0 149,-27 149,40 0,68 -52,69 -94,69 -42,0 -222,-109 -352,-109 -130,0 -135,134 -135,177 0,43 35,465 190,465 154,0 103,-219 122,-219 19,0 17,233 123,233 105,0 149,-185 149,-301 0,-116 -3,-136 -14,-136 -12,0 -40,370 -135,370 -55,0 17,-246 -123,-246 -124,0 -41,233 -122,233 -59,0 -123,-314 -123,-370 0,-56 5,-136 82,-136 62,0 212,109 339,109 128,0 163,-90 163,-136 0,-46 -84,-144 -219,-43zm-10727 -450c0,0 91,-17 91,25 0,42 -32,42 -58,42 -25,0 -135,-67 -214,-67 -79,0 -83,82 -83,109 0,27 22,288 115,288 93,0 62,-135 74,-135 11,0 10,144 74,144 64,0 90,-113 90,-186 0,-73 -1,-84 -7,-84 -7,0 -25,228 -83,228 -33,0 11,-152 -74,-152 -75,0 -26,145 -74,145 -36,0 -74,-194 -74,-229 0,-34 2,-84 50,-84 38,0 128,68 205,68 76,0 99,-56 99,-84 0,-28 -49,-91 -131,-28zm5376 234c0,0 111,-20 111,31 0,51 -39,51 -71,51 -31,0 -165,-82 -262,-82 -97,0 -101,100 -101,133 0,33 27,347 142,347 114,0 76,-164 90,-164 14,0 13,174 91,174 77,0 111,-138 111,-225 0,-86 -2,-102 -11,-102 -9,0 -29,276 -100,276 -41,0 14,-184 -91,-184 -92,0 -31,174 -90,174 -44,0 -91,-235 -91,-276 0,-41 4,-102 61,-102 47,0 158,82 253,82 94,0 121,-68 121,-102 0,-35 -63,-106 -163,-31z"/>
   <path class="fil3" d="M9990 3267c-5397,-1077 -9065,-2803 -9990,-3267l0 4160 18919 0c-2082,-1 -4050,-148 -5873,-388l-253 -33c-871,-120 -1709,-259 -2509,-414 -48,-9 -96,-18 -143,-28l-151 -30zm14491 544c-1907,242 -3749,348 -5509,349l5509 0 0 -349z"/>
  </g>
 </g>
</svg>
