<?xml version="1.0" encoding="utf-8"?>
<!-- Generator: Adobe Illustrator 22.0.1, SVG Export Plug-In . SVG Version: 6.00 Build 0)  -->
<svg version="1.1" id="Layer_1" xmlns="http://www.w3.org/2000/svg" xmlns:xlink="http://www.w3.org/1999/xlink" x="0px" y="0px"
	 viewBox="0 0 2036 1647" style="enable-background:new 0 0 2036 1647;" xml:space="preserve">
<style type="text/css">
	.st0{fill:#FFDCC6;}
	.st1{opacity:0.15;fill:#FF301C;enable-background:new    ;}
	.st2{font-family:'BigNoodleTitlingCyr';}
	.st3{font-size:145.046px;}
	.st4{font-size:99.9921px;}
	.st5{font-size:124.9909px;}
	.st6{opacity:0.76;fill:#FF301C;enable-background:new    ;}
	.st7{opacity:0.15;fill:#FFDCC6;enable-background:new    ;}
</style>
<path class="st0" d="M1999,658H79v362.3c126.5,63.5,906.9,427.7,1920,298.9V658z"/>
<text id="_" transform="matrix(1 0 0 1 1891.6094 1297.1758)" class="st1 st2 st3">+</text>
<text id="_2" transform="matrix(1 0 0 1 621.3691 1239.959)" class="st1 st2 st4">+</text>
<text id="_copy" transform="matrix(1 0 0 1 1078.3672 1345.9609)" class="st1 st2 st4">+</text>
<text id="_3" transform="matrix(1 0 0 1 1482.3691 1314.9629)" class="st1 st2 st5">+</text>
<path id="Shape_1_copy_2" class="st1" d="M1722,1288.5c0,0,11.7-2.1,11.7,3.2s-4.1,5.4-7.4,5.4s-17.4-8.6-27.6-8.6
	s-10.6,10.5-10.6,13.9s2.8,36.5,14.9,36.5s8.1-17.2,9.6-17.2s1.3,18.3,9.6,18.3s11.7-14.5,11.7-23.6s-0.2-10.7-1.1-10.7
	s-3.1,29-10.6,29c-4.3,0,1.4-19.3-9.6-19.3c-9.7,0-3.2,18.3-9.6,18.3c-4.6,0-9.6-24.6-9.6-29s0.4-10.7,6.4-10.7
	c4.9,0,16.6,8.6,26.6,8.6s12.8-7.1,12.8-10.7S1732.6,1280.6,1722,1288.5z"/>
<path id="Shape_1_copy_6" class="st1" d="M880.7,1253.2c0,0,7.1-1.3,7.1,2s-2.5,3.3-4.5,3.3s-10.6-5.3-16.8-5.3s-6.5,6.5-6.5,8.6
	s1.7,22.6,9,22.6s4.9-10.6,5.8-10.6s0.8,11.3,5.8,11.3s7.1-8.9,7.1-14.6s-0.1-6.6-0.6-6.6s-1.9,17.9-6.5,17.9
	c-2.6,0,0.9-11.9-5.8-11.9c-5.9,0-2,11.3-5.8,11.3c-2.8,0-5.8-15.2-5.8-17.9s0.2-6.6,3.9-6.6c3,0,10.1,5.3,16.1,5.3s7.8-4.4,7.8-6.6
	S887.1,1248.3,880.7,1253.2z"/>
<path id="Shape_1_copy_7" class="st1" d="M1302.3,1271.6c0,0,8.7-1.6,8.7,2.4s-3,4-5.5,4s-13-6.4-20.6-6.4s-7.9,7.8-7.9,10.4
	s2.1,27.2,11.1,27.2s6-12.8,7.1-12.8s1,13.6,7.1,13.6s8.7-10.8,8.7-17.6s-0.1-8-0.8-8s-2.3,21.6-7.9,21.6c-3.2,0,1.1-14.4-7.1-14.4
	c-7.2,0-2.4,13.6-7.1,13.6c-3.4,0-7.1-18.4-7.1-21.6s0.3-8,4.8-8c3.7,0,12.4,6.4,19.8,6.4s9.5-5.3,9.5-8
	S1310.2,1265.7,1302.3,1271.6z"/>
<path d="M1998,659H78v359.5c136.6,55.5,1028.7,394.5,1920,166.6V659z"/>
<path id="Shape_5_copy_2" class="st6" d="M2036,0H48l13,1011.9c0,0,984.2,428,1960,168.3L2036,0z"/>
<path class="st7" d="M1607,1253c0,0-836.9,42.5-1607-746l3,530l975,296L1607,1253z"/>
</svg>
