<svg xmlns="http://www.w3.org/2000/svg" width="230" height="230" viewBox="0 0 230 230">
  <metadata><?xpacket begin="﻿" id="W5M0MpCehiHzreSzNTczkc9d"?>
<x:xmpmeta xmlns:x="adobe:ns:meta/" x:xmptk="Adobe XMP Core 5.6-c142 79.160924, 2017/07/13-01:06:39        ">
   <rdf:RDF xmlns:rdf="http://www.w3.org/1999/02/22-rdf-syntax-ns#">
      <rdf:Description rdf:about=""/>
   </rdf:RDF>
</x:xmpmeta>
                                                                                                    
                                                                                                    
                                                                                                    
                                                                                                    
                                                                                                    
                                                                                                    
                                                                                                    
                                                                                                    
                                                                                                    
                                                                                                    
                                                                                                    
                                                                                                    
                                                                                                    
                                                                                                    
                                                                                                    
                                                                                                    
                                                                                                    
                                                                                                    
                                                                                                    
                                                                                                    
                           
<?xpacket end="w"?></metadata>
<defs>
    <style>
      .cls-1 {
        fill: none;
        stroke: ivory;
        stroke-width: 2px;
      }

      .cls-2 {
        fill: #fff;
        fill-rule: evenodd;
        opacity: 0.12;
      }
    </style>
  </defs>
  <circle class="cls-1" cx="115" cy="115" r="115"/>
  <path id="зуб" class="cls-2" d="M136.333,51.228s29.333-5.546,29.333,8.549S155.444,74.024,147,74.024s-43.746-22.8-69.334-22.8S51,78.987,51,88.269s7.1,96.88,37.333,96.88,20.3-45.591,24-45.591,3.248,48.44,24,48.44,29.333-38.421,29.333-62.686S165.279,96.818,163,96.818s-7.814,76.933-26.666,76.933c-10.858,0,3.552-51.289-24-51.289-24.282,0-8.093,48.441-24,48.441-11.547,0-24-65.377-24-76.934s1.015-28.494,16-28.494c12.441,0,41.682,22.794,66.667,22.794s32-18.906,32-28.493S162.858,30.263,136.333,51.228Z"/>
</svg>
