<svg xmlns="http://www.w3.org/2000/svg" width="1920" height="856" viewBox="0 0 1920 856">
  <metadata><?xpacket begin="﻿" id="W5M0MpCehiHzreSzNTczkc9d"?>
<x:xmpmeta xmlns:x="adobe:ns:meta/" x:xmptk="Adobe XMP Core 5.6-c142 79.160924, 2017/07/13-01:06:39        ">
   <rdf:RDF xmlns:rdf="http://www.w3.org/1999/02/22-rdf-syntax-ns#">
      <rdf:Description rdf:about=""/>
   </rdf:RDF>
</x:xmpmeta>
                                                                                                    
                                                                                                    
                                                                                                    
                                                                                                    
                                                                                                    
                                                                                                    
                                                                                                    
                                                                                                    
                                                                                                    
                                                                                                    
                                                                                                    
                                                                                                    
                                                                                                    
                                                                                                    
                                                                                                    
                                                                                                    
                                                                                                    
                                                                                                    
                                                                                                    
                                                                                                    
                           
<?xpacket end="w"?></metadata>
<defs>
    <style>
      .cls-1 {
        fill: #ff301c;
      }

      .cls-1, .cls-2, .cls-3 {
        fill-rule: evenodd;
      }

      .cls-2 {
        fill: #f8f7fc;
      }

      .cls-3 {
        opacity: 0.05;
      }
    </style>
  </defs>
  <path class="cls-1" d="M0,653.036c219.772,88.418,636.565,213.4,1160,195.3C715.919,821.614,318.093,693.372,0,484.638"/>
  <path class="cls-1" d="M1374,371c151.55-5.083,349.33-20.747,546-79.518V257C1810.82,316.3,1527.67,360.216,1374,371Z"/>
  <path class="cls-2" d="M1341,369.822C833.25,369.822,366.826,240.878,0,0V485.636c366.829,240.88,833.249,369.829,1341,369.829a2139.911,2139.911,0,0,0,579-79.331V290.5A2139.87,2139.87,0,0,1,1341,369.822Z"/>
  <path id="Shape_1_copy_2" data-name="Shape 1 copy 2" class="cls-3" d="M1748.67,343.548s117.79-20.74,117.79,31.966-41.05,53.276-74.96,53.276-175.67-85.242-278.42-85.242S1406,447.352,1406,482.066s28.49,362.278,149.92,362.278,81.53-170.484,96.37-170.484S1665.33,855,1748.67,855s117.79-143.678,117.79-234.415-1.56-106.552-10.71-106.552-31.38,287.691-107.08,287.691c-43.6,0,14.26-191.794-96.38-191.794-97.51,0-32.5,181.139-96.37,181.139-46.37,0-96.38-244.475-96.38-287.691s4.08-106.553,64.25-106.553c49.96,0,167.38,85.242,267.71,85.242s128.5-70.7,128.5-106.552S1855.18,265.151,1748.67,343.548Z"/>
</svg>
