<svg xmlns="http://www.w3.org/2000/svg" width="362" height="218" viewBox="0 0 362 218">
  <defs>
    <style>
      .cls-1 {
        fill: #fff;
        fill-rule: evenodd;
        opacity: 0.07;
      }
    </style>
  </defs>
  <path id="Shape_1_copy_21" data-name="Shape 1 copy 21" class="cls-1" d="M651.333,1120.77s5.958-1.06,5.958,1.64-2.076,2.73-3.791,2.73-8.886-4.37-14.083-4.37-5.417,5.32-5.417,7.1,1.441,18.58,7.583,18.58,4.125-8.74,4.875-8.74,0.66,9.29,4.875,9.29,5.958-7.37,5.958-12.02-0.078-5.47-.541-5.47-1.588,14.76-5.417,14.76c-2.2,0,.722-9.84-4.875-9.84-4.932,0-1.644,9.29-4.875,9.29-2.345,0-4.875-12.54-4.875-14.75s0.206-5.47,3.25-5.47c2.527,0,8.467,4.37,13.542,4.37s6.5-3.62,6.5-5.46S656.721,1116.75,651.333,1120.77Zm56,0s5.958-1.06,5.958,1.64-2.076,2.73-3.791,2.73-8.886-4.37-14.084-4.37-5.416,5.32-5.416,7.1,1.441,18.58,7.583,18.58,4.125-8.74,4.875-8.74,0.66,9.29,4.875,9.29,5.958-7.37,5.958-12.02-0.078-5.47-.541-5.47-1.588,14.76-5.417,14.76c-2.2,0,.722-9.84-4.875-9.84-4.932,0-1.644,9.29-4.875,9.29-2.345,0-4.875-12.54-4.875-14.75s0.206-5.47,3.25-5.47c2.527,0,8.467,4.37,13.542,4.37s6.5-3.62,6.5-5.46S712.721,1116.75,707.333,1120.77Zm56,0s5.958-1.06,5.958,1.64-2.076,2.73-3.791,2.73-8.886-4.37-14.083-4.37-5.417,5.32-5.417,7.1,1.441,18.58,7.583,18.58,4.125-8.74,4.875-8.74,0.66,9.29,4.875,9.29,5.958-7.37,5.958-12.02-0.078-5.47-.541-5.47-1.588,14.76-5.417,14.76c-2.2,0,.722-9.84-4.875-9.84-4.932,0-1.644,9.29-4.875,9.29-2.345,0-4.875-12.54-4.875-14.75s0.206-5.47,3.25-5.47c2.527,0,8.467,4.37,13.542,4.37s6.5-3.62,6.5-5.46S768.721,1116.75,763.333,1120.77Zm-112,96s5.958-1.06,5.958,1.64-2.076,2.73-3.791,2.73-8.886-4.37-14.083-4.37-5.417,5.32-5.417,7.1,1.441,18.58,7.583,18.58,4.125-8.74,4.875-8.74,0.66,9.29,4.875,9.29,5.958-7.37,5.958-12.02-0.078-5.47-.541-5.47-1.588,14.76-5.417,14.76c-2.2,0,.722-9.84-4.875-9.84-4.932,0-1.644,9.29-4.875,9.29-2.345,0-4.875-12.54-4.875-14.75s0.206-5.47,3.25-5.47c2.527,0,8.467,4.37,13.542,4.37s6.5-3.62,6.5-5.46S656.721,1212.75,651.333,1216.77Zm56,0s5.958-1.06,5.958,1.64-2.076,2.73-3.791,2.73-8.886-4.37-14.084-4.37-5.416,5.32-5.416,7.1,1.441,18.58,7.583,18.58,4.125-8.74,4.875-8.74,0.66,9.29,4.875,9.29,5.958-7.37,5.958-12.02-0.078-5.47-.541-5.47-1.588,14.76-5.417,14.76c-2.2,0,.722-9.84-4.875-9.84-4.932,0-1.644,9.29-4.875,9.29-2.345,0-4.875-12.54-4.875-14.75s0.206-5.47,3.25-5.47c2.527,0,8.467,4.37,13.542,4.37s6.5-3.62,6.5-5.46S712.721,1212.75,707.333,1216.77Zm56,0s5.958-1.06,5.958,1.64-2.076,2.73-3.791,2.73-8.886-4.37-14.083-4.37-5.417,5.32-5.417,7.1,1.441,18.58,7.583,18.58,4.125-8.74,4.875-8.74,0.66,9.29,4.875,9.29,5.958-7.37,5.958-12.02-0.078-5.47-.541-5.47-1.588,14.76-5.417,14.76c-2.2,0,.722-9.84-4.875-9.84-4.932,0-1.644,9.29-4.875,9.29-2.345,0-4.875-12.54-4.875-14.75s0.206-5.47,3.25-5.47c2.527,0,8.467,4.37,13.542,4.37s6.5-3.62,6.5-5.46S768.721,1212.75,763.333,1216.77Zm-112,94s5.958-1.06,5.958,1.64-2.076,2.73-3.791,2.73-8.886-4.37-14.083-4.37-5.417,5.32-5.417,7.1,1.441,18.58,7.583,18.58,4.125-8.74,4.875-8.74,0.66,9.29,4.875,9.29,5.958-7.37,5.958-12.02-0.078-5.47-.541-5.47-1.588,14.76-5.417,14.76c-2.2,0,.722-9.84-4.875-9.84-4.932,0-1.644,9.29-4.875,9.29-2.345,0-4.875-12.54-4.875-14.75s0.206-5.47,3.25-5.47c2.527,0,8.467,4.37,13.542,4.37s6.5-3.62,6.5-5.46S656.721,1306.75,651.333,1310.77Zm56,0s5.958-1.06,5.958,1.64-2.076,2.73-3.791,2.73-8.886-4.37-14.084-4.37-5.416,5.32-5.416,7.1,1.441,18.58,7.583,18.58,4.125-8.74,4.875-8.74,0.66,9.29,4.875,9.29,5.958-7.37,5.958-12.02-0.078-5.47-.541-5.47-1.588,14.76-5.417,14.76c-2.2,0,.722-9.84-4.875-9.84-4.932,0-1.644,9.29-4.875,9.29-2.345,0-4.875-12.54-4.875-14.75s0.206-5.47,3.25-5.47c2.527,0,8.467,4.37,13.542,4.37s6.5-3.62,6.5-5.46S712.721,1306.75,707.333,1310.77Zm56,0s5.958-1.06,5.958,1.64-2.076,2.73-3.791,2.73-8.886-4.37-14.083-4.37-5.417,5.32-5.417,7.1,1.441,18.58,7.583,18.58,4.125-8.74,4.875-8.74,0.66,9.29,4.875,9.29,5.958-7.37,5.958-12.02-0.078-5.47-.541-5.47-1.588,14.76-5.417,14.76c-2.2,0,.722-9.84-4.875-9.84-4.932,0-1.644,9.29-4.875,9.29-2.345,0-4.875-12.54-4.875-14.75s0.206-5.47,3.25-5.47c2.527,0,8.467,4.37,13.542,4.37s6.5-3.62,6.5-5.46S768.721,1306.75,763.333,1310.77Zm-138-142s5.958-1.06,5.958,1.64-2.076,2.73-3.791,2.73-8.886-4.37-14.084-4.37-5.416,5.32-5.416,7.1,1.441,18.58,7.583,18.58,4.125-8.74,4.875-8.74,0.66,9.29,4.875,9.29,5.958-7.37,5.958-12.02-0.078-5.47-.541-5.47-1.588,14.76-5.417,14.76c-2.2,0,.722-9.84-4.875-9.84-4.932,0-1.644,9.29-4.875,9.29-2.345,0-4.875-12.54-4.875-14.75s0.206-5.47,3.25-5.47c2.527,0,8.467,4.37,13.542,4.37s6.5-3.62,6.5-5.46S630.721,1164.75,625.333,1168.77Zm56,0s5.958-1.06,5.958,1.64-2.076,2.73-3.791,2.73-8.886-4.37-14.083-4.37-5.417,5.32-5.417,7.1,1.441,18.58,7.583,18.58,4.125-8.74,4.875-8.74,0.66,9.29,4.875,9.29,5.958-7.37,5.958-12.02-0.078-5.47-.541-5.47-1.588,14.76-5.417,14.76c-2.2,0,.722-9.84-4.875-9.84-4.932,0-1.644,9.29-4.875,9.29-2.345,0-4.875-12.54-4.875-14.75s0.206-5.47,3.25-5.47c2.527,0,8.467,4.37,13.542,4.37s6.5-3.62,6.5-5.46S686.721,1164.75,681.333,1168.77Zm56,0s5.958-1.06,5.958,1.64-2.076,2.73-3.791,2.73-8.886-4.37-14.084-4.37-5.416,5.32-5.416,7.1,1.441,18.58,7.583,18.58,4.125-8.74,4.875-8.74,0.66,9.29,4.875,9.29,5.958-7.37,5.958-12.02-0.078-5.47-.541-5.47-1.588,14.76-5.417,14.76c-2.2,0,.722-9.84-4.875-9.84-4.932,0-1.644,9.29-4.875,9.29-2.345,0-4.875-12.54-4.875-14.75s0.206-5.47,3.25-5.47c2.527,0,8.467,4.37,13.542,4.37s6.5-3.62,6.5-5.46S742.721,1164.75,737.333,1168.77Zm56,0s5.958-1.06,5.958,1.64-2.076,2.73-3.791,2.73-8.886-4.37-14.083-4.37-5.417,5.32-5.417,7.1,1.441,18.58,7.583,18.58,4.125-8.74,4.875-8.74,0.66,9.29,4.875,9.29,5.958-7.37,5.958-12.02-0.078-5.47-.541-5.47-1.588,14.76-5.417,14.76c-2.2,0,.722-9.84-4.875-9.84-4.932,0-1.644,9.29-4.875,9.29-2.345,0-4.875-12.54-4.875-14.75s0.206-5.47,3.25-5.47c2.527,0,8.467,4.37,13.542,4.37s6.5-3.62,6.5-5.46S798.721,1164.75,793.333,1168.77Zm-168,96s5.958-1.06,5.958,1.64-2.076,2.73-3.791,2.73-8.886-4.37-14.084-4.37-5.416,5.32-5.416,7.1,1.441,18.58,7.583,18.58,4.125-8.74,4.875-8.74,0.66,9.29,4.875,9.29,5.958-7.37,5.958-12.02-0.078-5.47-.541-5.47-1.588,14.76-5.417,14.76c-2.2,0,.722-9.84-4.875-9.84-4.932,0-1.644,9.29-4.875,9.29-2.345,0-4.875-12.54-4.875-14.75s0.206-5.47,3.25-5.47c2.527,0,8.467,4.37,13.542,4.37s6.5-3.62,6.5-5.46S630.721,1260.75,625.333,1264.77Zm56,0s5.958-1.06,5.958,1.64-2.076,2.73-3.791,2.73-8.886-4.37-14.083-4.37-5.417,5.32-5.417,7.1,1.441,18.58,7.583,18.58,4.125-8.74,4.875-8.74,0.66,9.29,4.875,9.29,5.958-7.37,5.958-12.02-0.078-5.47-.541-5.47-1.588,14.76-5.417,14.76c-2.2,0,.722-9.84-4.875-9.84-4.932,0-1.644,9.29-4.875,9.29-2.345,0-4.875-12.54-4.875-14.75s0.206-5.47,3.25-5.47c2.527,0,8.467,4.37,13.542,4.37s6.5-3.62,6.5-5.46S686.721,1260.75,681.333,1264.77Zm56,0s5.958-1.06,5.958,1.64-2.076,2.73-3.791,2.73-8.886-4.37-14.084-4.37-5.416,5.32-5.416,7.1,1.441,18.58,7.583,18.58,4.125-8.74,4.875-8.74,0.66,9.29,4.875,9.29,5.958-7.37,5.958-12.02-0.078-5.47-.541-5.47-1.588,14.76-5.417,14.76c-2.2,0,.722-9.84-4.875-9.84-4.932,0-1.644,9.29-4.875,9.29-2.345,0-4.875-12.54-4.875-14.75s0.206-5.47,3.25-5.47c2.527,0,8.467,4.37,13.542,4.37s6.5-3.62,6.5-5.46S742.721,1260.75,737.333,1264.77Zm56,0s5.958-1.06,5.958,1.64-2.076,2.73-3.791,2.73-8.886-4.37-14.083-4.37-5.417,5.32-5.417,7.1,1.441,18.58,7.583,18.58,4.125-8.74,4.875-8.74,0.66,9.29,4.875,9.29,5.958-7.37,5.958-12.02-0.078-5.47-.541-5.47-1.588,14.76-5.417,14.76c-2.2,0,.722-9.84-4.875-9.84-4.932,0-1.644,9.29-4.875,9.29-2.345,0-4.875-12.54-4.875-14.75s0.206-5.47,3.25-5.47c2.527,0,8.467,4.37,13.542,4.37s6.5-3.62,6.5-5.46S798.721,1260.75,793.333,1264.77Zm26-144s5.958-1.06,5.958,1.64-2.076,2.73-3.791,2.73-8.886-4.37-14.083-4.37-5.417,5.32-5.417,7.1,1.441,18.58,7.583,18.58,4.125-8.74,4.875-8.74,0.66,9.29,4.875,9.29,5.958-7.37,5.958-12.02-0.078-5.47-.541-5.47-1.588,14.76-5.417,14.76c-2.2,0,.722-9.84-4.875-9.84-4.932,0-1.644,9.29-4.875,9.29-2.345,0-4.875-12.54-4.875-14.75s0.206-5.47,3.25-5.47c2.527,0,8.467,4.37,13.542,4.37s6.5-3.62,6.5-5.46S824.721,1116.75,819.333,1120.77Zm56,0s5.959-1.06,5.959,1.64-2.077,2.73-3.792,2.73-8.886-4.37-14.083-4.37-5.417,5.32-5.417,7.1,1.441,18.58,7.583,18.58,4.125-8.74,4.875-8.74,0.66,9.29,4.875,9.29,5.959-7.37,5.959-12.02-0.079-5.47-.542-5.47-1.588,14.76-5.417,14.76c-2.2,0,.722-9.84-4.875-9.84-4.932,0-1.644,9.29-4.875,9.29-2.345,0-4.875-12.54-4.875-14.75s0.207-5.47,3.25-5.47c2.527,0,8.467,4.37,13.542,4.37s6.5-3.62,6.5-5.46S880.721,1116.75,875.333,1120.77Zm56,0s5.958-1.06,5.958,1.64-2.076,2.73-3.791,2.73-8.886-4.37-14.083-4.37-5.417,5.32-5.417,7.1,1.441,18.58,7.583,18.58,4.125-8.74,4.875-8.74,0.66,9.29,4.875,9.29,5.958-7.37,5.958-12.02-0.078-5.47-.541-5.47-1.588,14.76-5.417,14.76c-2.2,0,.722-9.84-4.875-9.84-4.932,0-1.644,9.29-4.875,9.29-2.345,0-4.875-12.54-4.875-14.75s0.206-5.47,3.25-5.47c2.527,0,8.467,4.37,13.542,4.37s6.5-3.62,6.5-5.46S936.721,1116.75,931.333,1120.77Zm-112,96s5.958-1.06,5.958,1.64-2.076,2.73-3.791,2.73-8.886-4.37-14.083-4.37-5.417,5.32-5.417,7.1,1.441,18.58,7.583,18.58,4.125-8.74,4.875-8.74,0.66,9.29,4.875,9.29,5.958-7.37,5.958-12.02-0.078-5.47-.541-5.47-1.588,14.76-5.417,14.76c-2.2,0,.722-9.84-4.875-9.84-4.932,0-1.644,9.29-4.875,9.29-2.345,0-4.875-12.54-4.875-14.75s0.206-5.47,3.25-5.47c2.527,0,8.467,4.37,13.542,4.37s6.5-3.62,6.5-5.46S824.721,1212.75,819.333,1216.77Zm56,0s5.959-1.06,5.959,1.64-2.077,2.73-3.792,2.73-8.886-4.37-14.083-4.37-5.417,5.32-5.417,7.1,1.441,18.58,7.583,18.58,4.125-8.74,4.875-8.74,0.66,9.29,4.875,9.29,5.959-7.37,5.959-12.02-0.079-5.47-.542-5.47-1.588,14.76-5.417,14.76c-2.2,0,.722-9.84-4.875-9.84-4.932,0-1.644,9.29-4.875,9.29-2.345,0-4.875-12.54-4.875-14.75s0.207-5.47,3.25-5.47c2.527,0,8.467,4.37,13.542,4.37s6.5-3.62,6.5-5.46S880.721,1212.75,875.333,1216.77Zm56,0s5.958-1.06,5.958,1.64-2.076,2.73-3.791,2.73-8.886-4.37-14.083-4.37-5.417,5.32-5.417,7.1,1.441,18.58,7.583,18.58,4.125-8.74,4.875-8.74,0.66,9.29,4.875,9.29,5.958-7.37,5.958-12.02-0.078-5.47-.541-5.47-1.588,14.76-5.417,14.76c-2.2,0,.722-9.84-4.875-9.84-4.932,0-1.644,9.29-4.875,9.29-2.345,0-4.875-12.54-4.875-14.75s0.206-5.47,3.25-5.47c2.527,0,8.467,4.37,13.542,4.37s6.5-3.62,6.5-5.46S936.721,1212.75,931.333,1216.77Zm-112,94s5.958-1.06,5.958,1.64-2.076,2.73-3.791,2.73-8.886-4.37-14.083-4.37-5.417,5.32-5.417,7.1,1.441,18.58,7.583,18.58,4.125-8.74,4.875-8.74,0.66,9.29,4.875,9.29,5.958-7.37,5.958-12.02-0.078-5.47-.541-5.47-1.588,14.76-5.417,14.76c-2.2,0,.722-9.84-4.875-9.84-4.932,0-1.644,9.29-4.875,9.29-2.345,0-4.875-12.54-4.875-14.75s0.206-5.47,3.25-5.47c2.527,0,8.467,4.37,13.542,4.37s6.5-3.62,6.5-5.46S824.721,1306.75,819.333,1310.77Zm56,0s5.959-1.06,5.959,1.64-2.077,2.73-3.792,2.73-8.886-4.37-14.083-4.37-5.417,5.32-5.417,7.1,1.441,18.58,7.583,18.58,4.125-8.74,4.875-8.74,0.66,9.29,4.875,9.29,5.959-7.37,5.959-12.02-0.079-5.47-.542-5.47-1.588,14.76-5.417,14.76c-2.2,0,.722-9.84-4.875-9.84-4.932,0-1.644,9.29-4.875,9.29-2.345,0-4.875-12.54-4.875-14.75s0.207-5.47,3.25-5.47c2.527,0,8.467,4.37,13.542,4.37s6.5-3.62,6.5-5.46S880.721,1306.75,875.333,1310.77Zm56,0s5.958-1.06,5.958,1.64-2.076,2.73-3.791,2.73-8.886-4.37-14.083-4.37-5.417,5.32-5.417,7.1,1.441,18.58,7.583,18.58,4.125-8.74,4.875-8.74,0.66,9.29,4.875,9.29,5.958-7.37,5.958-12.02-0.078-5.47-.541-5.47-1.588,14.76-5.417,14.76c-2.2,0,.722-9.84-4.875-9.84-4.932,0-1.644,9.29-4.875,9.29-2.345,0-4.875-12.54-4.875-14.75s0.206-5.47,3.25-5.47c2.527,0,8.467,4.37,13.542,4.37s6.5-3.62,6.5-5.46S936.721,1306.75,931.333,1310.77Zm-82-142s5.958-1.06,5.958,1.64-2.076,2.73-3.791,2.73-8.886-4.37-14.083-4.37-5.417,5.32-5.417,7.1,1.441,18.58,7.583,18.58,4.125-8.74,4.875-8.74,0.66,9.29,4.875,9.29,5.958-7.37,5.958-12.02-0.078-5.47-.541-5.47-1.588,14.76-5.417,14.76c-2.2,0,.722-9.84-4.875-9.84-4.932,0-1.644,9.29-4.875,9.29-2.345,0-4.875-12.54-4.875-14.75s0.206-5.47,3.25-5.47c2.527,0,8.467,4.37,13.542,4.37s6.5-3.62,6.5-5.46S854.721,1164.75,849.333,1168.77Zm56,0s5.959-1.06,5.959,1.64-2.077,2.73-3.792,2.73-8.886-4.37-14.083-4.37-5.417,5.32-5.417,7.1,1.441,18.58,7.583,18.58,4.125-8.74,4.875-8.74,0.66,9.29,4.875,9.29,5.959-7.37,5.959-12.02-0.079-5.47-.542-5.47-1.588,14.76-5.417,14.76c-2.2,0,.722-9.84-4.875-9.84-4.932,0-1.644,9.29-4.875,9.29-2.345,0-4.875-12.54-4.875-14.75s0.207-5.47,3.25-5.47c2.527,0,8.467,4.37,13.542,4.37s6.5-3.62,6.5-5.46S910.721,1164.75,905.333,1168.77Zm56,0s5.958-1.06,5.958,1.64-2.076,2.73-3.791,2.73-8.886-4.37-14.083-4.37-5.417,5.32-5.417,7.1,1.441,18.58,7.583,18.58,4.125-8.74,4.875-8.74,0.66,9.29,4.875,9.29,5.958-7.37,5.958-12.02-0.078-5.47-.541-5.47-1.588,14.76-5.417,14.76c-2.2,0,.722-9.84-4.875-9.84-4.932,0-1.644,9.29-4.875,9.29-2.345,0-4.875-12.54-4.875-14.75s0.206-5.47,3.25-5.47c2.527,0,8.467,4.37,13.542,4.37s6.5-3.62,6.5-5.46S966.721,1164.75,961.333,1168.77Zm-112,96s5.958-1.06,5.958,1.64-2.076,2.73-3.791,2.73-8.886-4.37-14.083-4.37-5.417,5.32-5.417,7.1,1.441,18.58,7.583,18.58,4.125-8.74,4.875-8.74,0.66,9.29,4.875,9.29,5.958-7.37,5.958-12.02-0.078-5.47-.541-5.47-1.588,14.76-5.417,14.76c-2.2,0,.722-9.84-4.875-9.84-4.932,0-1.644,9.29-4.875,9.29-2.345,0-4.875-12.54-4.875-14.75s0.206-5.47,3.25-5.47c2.527,0,8.467,4.37,13.542,4.37s6.5-3.62,6.5-5.46S854.721,1260.75,849.333,1264.77Zm56,0s5.959-1.06,5.959,1.64-2.077,2.73-3.792,2.73-8.886-4.37-14.083-4.37-5.417,5.32-5.417,7.1,1.441,18.58,7.583,18.58,4.125-8.74,4.875-8.74,0.66,9.29,4.875,9.29,5.959-7.37,5.959-12.02-0.079-5.47-.542-5.47-1.588,14.76-5.417,14.76c-2.2,0,.722-9.84-4.875-9.84-4.932,0-1.644,9.29-4.875,9.29-2.345,0-4.875-12.54-4.875-14.75s0.207-5.47,3.25-5.47c2.527,0,8.467,4.37,13.542,4.37s6.5-3.62,6.5-5.46S910.721,1260.75,905.333,1264.77Zm56,0s5.958-1.06,5.958,1.64-2.076,2.73-3.791,2.73-8.886-4.37-14.083-4.37-5.417,5.32-5.417,7.1,1.441,18.58,7.583,18.58,4.125-8.74,4.875-8.74,0.66,9.29,4.875,9.29,5.958-7.37,5.958-12.02-0.078-5.47-.541-5.47-1.588,14.76-5.417,14.76c-2.2,0,.722-9.84-4.875-9.84-4.932,0-1.644,9.29-4.875,9.29-2.345,0-4.875-12.54-4.875-14.75s0.206-5.47,3.25-5.47c2.527,0,8.467,4.37,13.542,4.37s6.5-3.62,6.5-5.46S966.721,1260.75,961.333,1264.77Z" transform="translate(-608 -1119)"/>
</svg>
