<?xml version="1.0" encoding="UTF-8"?>
<!DOCTYPE svg PUBLIC "-//W3C//DTD SVG 1.1//EN" "http://www.w3.org/Graphics/SVG/1.1/DTD/svg11.dtd">
<!-- Creator: CorelDRAW X7 -->
<svg xmlns="http://www.w3.org/2000/svg" xml:space="preserve" version="1.1" style="shape-rendering:geometricPrecision; text-rendering:geometricPrecision; image-rendering:optimizeQuality; fill-rule:evenodd; clip-rule:evenodd"
viewBox="0 0 1099 1164"
 xmlns:xlink="http://www.w3.org/1999/xlink">
 <defs>
  <style type="text/css">
   <![CDATA[
    .fil0 {fill:#7F7F7F;fill-rule:nonzero}
    .fil1 {fill:#D35048;fill-rule:nonzero}
    .fil2 {fill:white;fill-rule:nonzero}
   ]]>
  </style>
 </defs>
 <g id="__x0023_Layer_x0020_1">
  <path class="fil0" d="M958 35l106 106 0 988 -812 0 0 -1094 706 0zm0 -35l0 0 -722 0c-10,0 -19,8 -19,18l0 1128c0,10 9,18 19,18l844 0c11,0 19,-8 19,-18l0 -1005 -141 -141z"/>
  <polygon class="fil0" points="1099,176 923,176 923,0 958,0 958,141 1099,141 "/>
  <polygon class="fil1" points="923,459 746,847 0,847 0,459 "/>
  <path class="fil2" d="M515 778l43 0 0 -90 82 0 0 -39 -82 0 0 -55 89 0 0 -38 -132 0 0 222zm-206 0c3,1 7,1 13,1 5,1 11,1 17,1 6,1 12,1 18,1 5,0 10,0 13,0 21,0 39,-3 54,-9 14,-7 26,-16 35,-27 9,-10 15,-23 19,-37 4,-14 6,-28 6,-43 0,-17 -2,-32 -6,-46 -4,-13 -11,-25 -19,-35 -9,-10 -20,-18 -34,-23 -14,-6 -31,-9 -51,-9 -4,0 -9,1 -15,1 -6,0 -11,0 -17,0 -6,0 -12,1 -18,1 -5,0 -10,1 -15,2l0 222 0 0zm98 -180l0 0c8,4 14,10 19,17 5,7 8,15 9,24 2,8 3,17 3,26 0,10 -1,20 -3,29 -2,9 -5,18 -10,25 -5,7 -11,13 -19,17 -8,4 -19,7 -31,7 -1,0 -3,0 -5,-1 -2,0 -4,0 -6,0 -3,0 -5,0 -7,0 -2,0 -3,0 -4,-1l0 -149c2,0 6,0 11,0 4,-1 9,-1 14,-1 12,0 22,2 29,7zm-279 180l43 0 0 -77c1,1 3,1 5,1 3,0 5,0 8,1 2,0 5,0 7,0 3,0 4,0 5,0 11,0 22,-2 32,-4 10,-3 20,-8 28,-14 8,-6 14,-14 19,-23 5,-10 7,-22 7,-36 0,-15 -2,-28 -8,-37 -6,-10 -13,-18 -22,-23 -9,-5 -19,-9 -30,-11 -11,-2 -22,-2 -33,-2 -11,0 -21,0 -32,1 -11,1 -20,2 -29,4l0 220zm81 -186l0 0c5,1 10,3 14,5 4,3 7,7 10,11 2,5 4,11 4,18 0,8 -2,14 -4,20 -3,5 -6,9 -11,11 -4,3 -9,5 -15,6 -6,1 -11,2 -17,2 -1,0 -2,0 -4,0 -2,0 -4,0 -6,0 -1,0 -3,-1 -5,-1 -2,0 -3,0 -4,0l0 -72c3,-1 6,-1 9,-2 4,0 8,0 13,0 5,0 10,0 16,2z"/>
 </g>
</svg>
