<?xml version="1.0" encoding="UTF-8"?>
<!DOCTYPE svg PUBLIC "-//W3C//DTD SVG 1.1//EN" "http://www.w3.org/Graphics/SVG/1.1/DTD/svg11.dtd">
<!-- Creator: CorelDRAW X7 -->
<svg xmlns="http://www.w3.org/2000/svg" xml:space="preserve" version="1.1" style="shape-rendering:geometricPrecision; text-rendering:geometricPrecision; image-rendering:optimizeQuality; fill-rule:evenodd; clip-rule:evenodd"
viewBox="0 0 1099 1164"
 xmlns:xlink="http://www.w3.org/1999/xlink">
 <defs>
  <style type="text/css">
   <![CDATA[
    .fil0 {fill:#7F7F7F;fill-rule:nonzero}
    .fil1 {fill:#D35048;fill-rule:nonzero}
    .fil2 {fill:white;fill-rule:nonzero}
   ]]>
  </style>
 </defs>
 <g id="__x0023_Layer_x0020_1">
  <path class="fil0" d="M958 35l106 106 0 988 -812 0 0 -1094 706 0zm0 -35l0 0 -722 0c-10,0 -19,8 -19,18l0 1128c0,10 9,18 19,18l844 0c11,0 19,-8 19,-18l0 -1005 -141 -141z"/>
  <polygon class="fil0" points="1099,176 923,176 923,0 958,0 958,141 1099,141 "/>
  <polygon class="fil1" points="923,459 746,847 0,847 0,459 "/>
  <path class="fil2" d="M105 570l-37 0 47 174 24 0 31 -96 4 -27 1 0 5 27 30 96 23 0 48 -174 -34 0 -21 96 -4 31 -1 0 -4 -31 -29 -96 -23 0 -30 96 -3 31 -1 0 -3 -31 -23 -96zm183 123c3,11 7,20 13,28 6,8 14,14 23,19 9,4 20,6 33,6 23,0 41,-8 54,-23 13,-16 19,-38 19,-67 0,-13 -2,-26 -5,-37 -2,-11 -7,-20 -13,-28 -6,-8 -14,-14 -23,-18 -9,-5 -20,-7 -32,-7 -24,0 -42,8 -55,24 -12,15 -19,37 -19,66 0,14 2,26 5,37zm41 -82l0 0c6,-10 16,-15 28,-15 7,0 12,2 17,5 5,3 9,7 12,13 3,5 5,11 6,19 2,7 2,15 2,23 0,21 -3,36 -10,46 -6,9 -15,14 -27,14 -7,0 -13,-2 -17,-5 -5,-3 -9,-7 -12,-12 -3,-5 -5,-12 -7,-19 -1,-7 -2,-15 -2,-24 0,-20 3,-36 10,-45zm125 131l34 0 0 -70 18 3 39 67 39 0 -39 -65 -13 -8c11,-4 20,-10 27,-19 6,-9 10,-20 10,-34 0,-10 -2,-18 -6,-24 -4,-6 -8,-11 -15,-15 -6,-4 -13,-6 -21,-8 -7,-1 -15,-2 -23,-2 -4,0 -8,0 -12,0 -4,1 -8,1 -13,1 -4,0 -8,1 -13,1 -4,1 -8,2 -12,2l0 171 0 0zm72 -138l0 0c5,4 7,10 7,17 0,10 -3,17 -8,21 -6,4 -13,7 -23,7l-14 0 0 -51c2,0 4,0 8,0 3,-1 7,-1 10,-1 9,0 16,2 20,7zm77 139c2,0 5,0 9,1 5,0 9,0 14,0 5,1 9,1 13,1 5,0 8,0 11,0 17,0 31,-2 42,-7 11,-6 20,-12 27,-21 7,-8 12,-18 15,-29 3,-10 4,-22 4,-33 0,-13 -1,-25 -4,-36 -3,-10 -8,-20 -15,-27 -7,-8 -16,-14 -27,-18 -10,-5 -24,-7 -39,-7 -3,0 -7,0 -12,0 -4,0 -8,0 -13,1 -5,0 -9,0 -13,0 -5,1 -9,1 -12,2l0 173 0 0zm76 -141l0 0c6,4 11,8 15,14 3,5 6,11 7,18 1,7 2,14 2,21 0,7 -1,15 -2,22 -2,8 -4,14 -8,20 -4,5 -9,10 -15,13 -7,3 -15,5 -24,5 -1,0 -2,0 -4,0 -1,0 -3,0 -5,0 -2,0 -3,0 -5,-1 -2,0 -3,0 -3,0l0 -116c1,0 4,0 8,0 4,-1 7,-1 11,-1 9,0 17,2 23,5z"/>
 </g>
</svg>
