<?xml version="1.0" encoding="UTF-8"?>
<!DOCTYPE svg PUBLIC "-//W3C//DTD SVG 1.1//EN" "http://www.w3.org/Graphics/SVG/1.1/DTD/svg11.dtd">
<!-- Creator: CorelDRAW X7 -->
<svg xmlns="http://www.w3.org/2000/svg" xml:space="preserve" version="1.1" style="shape-rendering:geometricPrecision; text-rendering:geometricPrecision; image-rendering:optimizeQuality; fill-rule:evenodd; clip-rule:evenodd"
viewBox="0 0 1099 1164"
 xmlns:xlink="http://www.w3.org/1999/xlink">
 <defs>
  <style type="text/css">
   <![CDATA[
    .fil0 {fill:#7F7F7F;fill-rule:nonzero}
    .fil1 {fill:#D35048;fill-rule:nonzero}
    .fil2 {fill:white;fill-rule:nonzero}
   ]]>
  </style>
 </defs>
 <g id="__x0023_Layer_x0020_1">
  <path class="fil0" d="M958 35l106 106 0 988 -812 0 0 -1094 706 0zm0 -35l0 0 -722 0c-10,0 -19,8 -19,18l0 1128c0,10 9,18 19,18l844 0c11,0 19,-8 19,-18l0 -1005 -141 -141z"/>
  <polygon class="fil0" points="1099,176 923,176 923,0 958,0 958,141 1099,141 "/>
  <polygon class="fil1" points="923,459 746,847 0,847 0,459 "/>
  <path class="fil2" d="M587 738c-7,4 -17,6 -30,6 -5,0 -11,0 -16,-1 -5,-1 -10,-2 -15,-3 -4,-1 -9,-3 -12,-4 -4,-2 -7,-3 -9,-4l-14 37c5,3 14,6 26,9 12,3 26,4 42,4 12,0 23,-1 33,-4 10,-3 19,-7 26,-13 7,-5 13,-12 17,-21 4,-9 6,-19 6,-31 0,-12 -3,-21 -8,-29 -5,-8 -11,-15 -19,-20 -7,-6 -15,-10 -24,-14 -9,-4 -17,-8 -25,-11 -7,-4 -13,-8 -18,-12 -5,-4 -8,-10 -8,-16 0,-7 3,-12 8,-16 6,-4 13,-6 24,-6 10,0 20,1 30,4 9,2 16,5 21,8l13 -37c-7,-4 -16,-7 -28,-10 -11,-2 -23,-3 -36,-3 -12,0 -22,1 -31,4 -9,3 -17,6 -23,12 -7,5 -12,12 -16,20 -4,8 -5,17 -5,28 0,12 2,22 7,30 5,9 11,15 19,21 7,5 16,10 24,13 9,4 17,8 25,11 7,4 14,7 19,12 4,4 7,9 7,16 0,9 -3,16 -10,20zm-108 1l-98 0 0 -183 -43 0 0 222 141 0 0 -39zm-358 39l47 0 40 -69 8 -23 9 23 39 69 51 0 -67 -115 64 -107 -47 0 -36 64 -7 22 -8 -22 -34 -64 -53 0 62 109 -68 113z"/>
 </g>
</svg>
