<?xml version="1.0" encoding="UTF-8"?>
<!DOCTYPE svg PUBLIC "-//W3C//DTD SVG 1.1//EN" "http://www.w3.org/Graphics/SVG/1.1/DTD/svg11.dtd">
<!-- Creator: CorelDRAW X7 -->
<svg xmlns="http://www.w3.org/2000/svg" xml:space="preserve" width="45.156mm" height="51.51mm" version="1.1" style="shape-rendering:geometricPrecision; text-rendering:geometricPrecision; image-rendering:optimizeQuality; fill-rule:evenodd; clip-rule:evenodd"
viewBox="0 0 4516 5151"
 xmlns:xlink="http://www.w3.org/1999/xlink">
 <defs>
  <style type="text/css">
   <![CDATA[
    .fil0 {fill:white;fill-rule:nonzero}
   ]]>
  </style>
 </defs>
 <g id="__x0023_Layer_x0020_1">
  <metadata id="CorelCorpID_0Corel-Layer"/>
  <path class="fil0" d="M3010 326c0,0 1035,-196 1035,302 0,497 -360,502 -658,502 -298,0 -1544,-804 -2446,-804 -903,0 -941,979 -941,1307 0,327 251,3417 1317,3417 1067,0 716,-1608 847,-1608 130,0 114,1709 846,1709 733,0 1035,-1355 1035,-2212 0,-856 -13,-1005 -94,-1005 -80,0 -276,2714 -941,2714 -383,0 126,-1809 -846,-1809 -857,0 -286,1709 -847,1709 -407,0 -847,-2306 -847,-2714 0,-408 36,-1005 565,-1005 439,0 1470,804 2352,804 881,0 1129,-667 1129,-1005 0,-338 -570,-1042 -1506,-302z"/>
 </g>
</svg>
