<?xml version="1.0" encoding="UTF-8"?>
<!DOCTYPE svg PUBLIC "-//W3C//DTD SVG 1.1//EN" "http://www.w3.org/Graphics/SVG/1.1/DTD/svg11.dtd">
<!-- Creator: CorelDRAW X7 -->
<svg xmlns="http://www.w3.org/2000/svg" xml:space="preserve" version="1.1" style="shape-rendering:geometricPrecision; text-rendering:geometricPrecision; image-rendering:optimizeQuality; fill-rule:evenodd; clip-rule:evenodd"
viewBox="0 0 18133 19262"
 xmlns:xlink="http://www.w3.org/1999/xlink">
 <defs>
  <style type="text/css">
   <![CDATA[
    .fil0 {fill:#EBEAEF;fill-rule:nonzero}
   ]]>
  </style>
 </defs>
 <g id="Слой_x0020_1">
  <path class="fil0" d="M12089 1219c0,0 4155,-731 4155,1128 0,1859 -1448,1880 -2644,1880 -1197,0 -6198,-3008 -9822,-3008 -3625,0 -3778,3662 -3778,4887 0,1225 1005,12780 5289,12780 4284,0 2876,-6014 3400,-6014 523,0 460,6390 3400,6390 2940,0 4155,-5068 4155,-8269 0,-3201 -55,-3759 -378,-3759 -323,0 -1107,10149 -3777,10149 -1538,0 503,-6766 -3400,-6766 -3440,0 -1147,6390 -3400,6390 -1636,0 -3400,-8625 -3400,-10149 0,-1525 144,-3759 2266,-3759 1763,0 5905,3007 9445,3007 3539,0 4533,-2494 4533,-3759 0,-1265 -2287,-3893 -6044,-1128z"/>
 </g>
</svg>
